<svg id="Capa_1" enable-background="new 0 0 512 512" height="512" viewBox="0 0 512 512" width="512" xmlns="http://www.w3.org/2000/svg"><g id="Coding_Focus"><path d="m256 421c-90.981 0-165-74.019-165-165s74.019-165 165-165 165 74.019 165 165-74.019 165-165 165z" fill="#4d4d99"/><path d="m421 256c0-90.981-74.019-165-165-165v330c90.981 0 165-74.019 165-165z" fill="#292966"/><path d="m187.213 256 19.393-19.393c5.858-5.858 5.858-15.355 0-21.213-5.857-5.858-15.355-5.858-21.213 0l-30 30c-5.858 5.858-5.858 15.355 0 21.213l30 30c5.857 5.858 15.355 5.858 21.213 0s5.858-15.355 0-21.213z" fill="#9ff"/><path d="m356.606 266.607c5.858-5.858 5.858-15.355 0-21.213l-30-30c-5.857-5.858-15.355-5.858-21.213 0s-5.858 15.355 0 21.213l19.394 19.393-19.393 19.393c-5.858 5.858-5.858 15.355 0 21.213 5.857 5.858 15.355 5.858 21.213 0z" fill="#66e6ff"/><path d="m226.448 312.362 30-120c2.01-8.037 10.154-12.923 18.19-10.914 8.037 2.009 12.923 10.153 10.914 18.19l-30 120c-4.838 19.352-33.937 12.054-29.104-7.276z" fill="#9ff"/><path d="m274.638 181.448c-8.037-2.009-16.181 2.877-18.19 10.914l-.448 1.791v123.694l29.552-118.209c2.01-8.037-2.877-16.181-10.914-18.19z" fill="#66e6ff"/><path d="m512 256c0-8.284-6.716-15-15-15h-16.512c-7.418-112.137-97.351-202.07-209.488-209.488v-16.512c0-8.284-6.716-15-15-15s-15 6.716-15 15v16.512c-112.137 7.418-202.07 97.351-209.488 209.488h-16.512c-8.284 0-15 6.716-15 15s6.716 15 15 15h16.512c7.418 112.137 97.351 202.07 209.488 209.488v16.512c0 8.284 6.716 15 15 15s15-6.716 15-15v-16.512c112.137-7.418 202.07-97.351 209.488-209.488h16.512c8.284 0 15-6.716 15-15zm-241 194.429v-44.429c0-8.284-6.716-15-15-15s-15 6.716-15 15v44.429c-95.591-7.306-172.123-83.838-179.429-179.429h44.429c8.284 0 15-6.716 15-15s-6.716-15-15-15h-44.429c7.306-95.591 83.838-172.123 179.429-179.429v44.429c0 8.284 6.716 15 15 15s15-6.716 15-15v-44.429c95.591 7.306 172.123 83.838 179.429 179.429h-44.429c-8.284 0-15 6.716-15 15s6.716 15 15 15h44.429c-7.306 95.591-83.838 172.123-179.429 179.429z" fill="#ff5959"/><path d="m256 121c8.284 0 15-6.716 15-15v-44.429c95.591 7.306 172.123 83.838 179.429 179.429h-44.429c-8.284 0-15 6.716-15 15s6.716 15 15 15h44.429c-7.306 95.591-83.838 172.123-179.429 179.429v-44.429c0-8.284-6.716-15-15-15v121c8.284 0 15-6.716 15-15v-16.512c112.137-7.418 202.07-97.351 209.488-209.488h16.512c8.284 0 15-6.716 15-15s-6.716-15-15-15h-16.512c-7.418-112.137-97.351-202.07-209.488-209.488v-16.512c0-8.284-6.716-15-15-15z" fill="#e63a57"/></g></svg>