<svg id="Flat" height="512" viewBox="0 0 512 512" width="512" xmlns="http://www.w3.org/2000/svg"><path d="m144 392h-96a24 24 0 0 1 0-48h96a294.062 294.062 0 0 0 209.3-86.7 294.07 294.07 0 0 0 86.7-209.3 24 24 0 0 1 48 0 343 343 0 0 1 -100.755 243.245 342.834 342.834 0 0 1 -109.337 73.712 341.877 341.877 0 0 1 -133.908 27.043z" fill="#8690fa"/><path d="m175.98 488a23.884 23.884 0 0 1 -14.381-4.8l-128-96a24 24 0 0 1 0-38.4l128-96a24 24 0 1 1 28.8 38.4l-102.399 76.8 102.4 76.8a24 24 0 0 1 -14.42 43.2z" fill="#5153ff"/></svg>