<svg width="1108" height="769" viewBox="0 0 1108 769" fill="none" xmlns="http://www.w3.org/2000/svg">
<path d="M624.419 324.109L620.738 325.385L618.6 322.128C605.079 301.526 578.703 292.24 554.995 300.462C526.529 310.335 511.397 341.536 521.27 370.002C528.694 391.41 543.772 406.583 565.06 414.087L565.06 414.087C570.747 416.092 576.734 417.496 582.897 418.371L585.918 418.8L586.918 421.683L626.976 537.182C629.789 545.293 635.574 551.802 643.298 555.549C643.298 555.549 643.299 555.549 643.299 555.549L888.723 674.574C894.818 677.53 901.545 677.736 907.506 675.668C913.468 673.6 918.623 669.274 921.579 663.179L1033.07 433.283C1038.99 421.086 1033.87 406.342 1021.68 400.427L776.254 281.401C776.254 281.401 776.254 281.401 776.254 281.401C768.529 277.656 759.835 277.143 751.725 279.956L624.419 324.109ZM1029.39 431.498L1029.39 431.498L917.899 661.395C912.964 671.57 900.684 675.829 890.509 670.894L645.084 551.869C638.359 548.608 633.289 542.903 630.841 535.842L592.784 426.113L590.452 419.39L597.567 419.475C610.706 419.63 624.043 417.693 636.384 414.309L639.854 413.358L641.858 416.346C649.79 428.174 664.996 433.676 679.046 428.803C695.767 423.003 704.658 404.671 698.859 387.95C693.06 371.23 674.727 362.339 658.006 368.138C642.627 373.472 633.872 389.42 637.094 404.962L638.06 409.623L633.453 410.817C620.395 414.202 606.128 415.959 592.266 415.171L588.923 414.981L587.826 411.818L572.659 368.087C568.954 357.404 574.626 345.707 585.31 342.002L753.065 283.821C760.126 281.372 767.744 281.821 774.469 285.082L1019.89 404.107L1019.89 404.108C1030.07 409.043 1034.33 421.323 1029.39 431.498ZM648.367 417.913L643.128 412.493L650.158 409.774C657.4 406.973 663.988 403.723 669.612 400.204C670.57 399.604 670.859 398.342 670.261 397.385L670.26 397.385C669.661 396.427 668.398 396.138 667.444 396.736L667.442 396.737C661.655 400.358 654.867 403.63 647.495 406.388L641.669 408.567L640.793 402.409C638.944 389.413 646.475 376.468 659.348 372.003C673.946 366.94 689.932 374.693 694.995 389.291C700.058 403.889 692.305 419.876 677.707 424.939C667.061 428.631 655.701 425.499 648.367 417.913ZM566.421 410.23L566.42 410.229C546.173 403.091 532.19 389.004 525.134 368.662C515.998 342.318 529.992 313.463 556.335 304.327C577.03 297.149 599.836 304.344 612.872 321.123L617.151 326.629L610.562 328.914L583.969 338.137C571.163 342.579 564.353 356.621 568.795 369.427L581.616 406.396L584.565 414.898L575.788 412.911C572.612 412.192 569.479 411.308 566.421 410.23Z" fill="#F8F8F8" stroke="#0F1B35" stroke-width="10"/>
<path d="M8.15733 216.811V214.717C9.62333 142.992 86.3349 108.547 143.676 142.025L144.845 142.707H146.197C165.757 142.707 184.87 138.065 202.68 131.507V178.309C196.654 180.265 190.589 181.92 184.37 183.326L178.825 184.579L180.776 189.919C183.454 197.248 184.995 204.557 184.995 212.203C184.995 258.153 157.236 292.897 112.91 301.241L112.857 301.251L112.804 301.262C105.423 302.817 98.7306 305.309 93.9176 310.115C88.9343 315.092 86.6267 321.861 86.6267 330.496C86.6267 337.188 88.8526 342.686 92.7719 347.132C96.574 351.446 101.774 354.552 107.442 357.008C115.261 360.396 125.062 362.95 134.954 365.527C139.075 366.6 143.212 367.678 147.227 368.822C161.367 372.85 174.694 377.822 184.496 386.291C194.026 394.525 200.568 406.369 200.568 425.131C200.568 456.655 190.141 476.718 173.43 489.109C156.433 501.712 132.12 507 103.232 507C79.558 507 54.754 502.963 36.0473 492.144C17.6779 481.519 5 464.299 5 436.8C5 420.794 9.72185 408.49 17.8042 398.983C25.9577 389.391 37.8343 382.295 52.6735 377.352L56.0933 376.213V372.608V371.456V368.663L53.7149 367.199C41.6482 359.769 36.4477 345.408 36.9963 331.096C37.2681 324.007 38.9593 317.246 41.693 311.818C44.4454 306.353 48.0665 302.583 52.0057 300.82L54.9627 299.496V296.256V295.104V291.523L51.5724 290.37C38.917 286.067 28.0339 274.89 20.2341 260.75C12.463 246.663 8.15733 230.34 8.15733 216.811ZM102.101 399.011H97.1013V399.125C88.1047 399.47 78.2091 400.874 69.9923 404.899C65.0253 407.333 60.5296 410.792 57.2828 415.671C54.0193 420.575 52.2249 426.603 52.1947 433.814L52.1947 433.824V433.835C52.1947 441.285 54.3463 447.405 58.1449 452.261C61.8888 457.046 66.9843 460.29 72.4128 462.504C83.1409 466.881 96.1862 467.635 106.048 467.635C116.561 467.635 128.227 466.351 137.416 461.339C142.095 458.787 146.205 455.228 149.121 450.35C152.038 445.471 153.587 439.561 153.587 432.576C153.587 425.329 151.596 419.333 148.036 414.532C144.518 409.787 139.702 406.527 134.525 404.282C124.312 399.853 111.823 399.011 102.101 399.011ZM93.496 260.823V261.043H98.496C111.913 261.043 121.913 256.588 128.382 248.197C134.661 240.049 137 228.964 137.011 216.858V216.853C137.011 186.834 117.902 170.302 97.6008 170.299C87.6327 170.297 77.6852 174.343 70.2646 182.401C62.827 190.478 58.1893 202.283 58.1893 217.408C58.1893 229.921 60.9391 240.94 67.7416 248.88C73.7816 255.93 82.4631 259.918 93.496 260.823Z" fill="#F8F8F8" stroke="#0F1B35" stroke-width="10"/>
<path d="M436.288 327.069C445.26 327.069 455.515 325.12 464.333 321.11V365.556C450.741 372.291 433.518 374.774 417.99 374.755H417.984C403.561 374.755 392.713 371.876 384.488 367.114C376.292 362.369 370.369 355.565 366.078 347.152C357.358 330.056 355.528 306.675 355.528 281.813V186.589H356.083V181.589V180.437V175.437H351.083C349.32 175.437 347.982 175.338 346.601 175.219C346.441 175.205 346.279 175.191 346.115 175.177C344.858 175.066 343.454 174.943 341.771 174.903C338.777 174.831 335.016 175.017 329.011 175.809V132.296H351.083H356.083V127.296C356.083 123.855 356.09 120.688 356.096 117.752C356.128 102.669 356.147 93.6965 355.17 85.2134H407.723C406.513 96.8118 406.586 108.322 406.658 119.508C406.674 122.123 406.691 124.72 406.691 127.296V132.296H411.691H464.248V176.384C461.705 176.283 458.274 176.16 454.031 176.037C444.07 175.748 429.632 175.459 411.691 175.459H406.691V180.459V284.565C406.691 293.221 407.617 303.539 411.671 311.853C413.737 316.089 416.687 319.954 420.865 322.746C425.072 325.557 430.211 327.069 436.288 327.069Z" fill="#F8F8F8" stroke="#0F1B35" stroke-width="10"/>
<path d="M232.584 41.9413C232.584 22.0833 247.218 5 266.496 5C285.381 5 299.619 22.6284 299.619 41.9413C299.619 61.1536 284.951 78.328 266.496 78.328C247.361 78.328 232.584 61.3579 232.584 41.9413Z" fill="#F8F8F8" stroke="#0F1B35" stroke-width="10"/>
<path d="M292.3 132.083C291.956 139.751 291.709 153.346 291.533 170.072C291.296 192.61 291.189 221.297 291.202 250.096C291.226 300.927 291.622 352.517 292.359 371H240.291C241.028 352.501 241.424 300.941 241.448 250.128C241.461 221.35 241.354 192.682 241.118 170.144C240.941 153.387 240.693 139.768 240.349 132.083H292.3Z" fill="#F8F8F8" stroke="#0F1B35" stroke-width="10"/>
<path d="M717.902 406.97L722.507 397.378L762.262 416.465L757.657 426.056L743.207 419.119L726.604 453.7L715.75 448.489L732.353 413.908L717.902 406.97ZM799.553 461.545C798.039 464.7 795.995 467.394 793.421 469.627C790.868 471.818 788.045 473.439 784.952 474.491C781.879 475.5 778.609 475.897 775.14 475.682C771.672 475.466 768.297 474.57 765.016 472.995C761.734 471.42 758.925 469.346 756.588 466.775C754.25 464.203 752.515 461.403 751.381 458.373C750.267 455.302 749.766 452.085 749.879 448.723C750.013 445.319 750.837 442.039 752.352 438.884C753.866 435.728 755.9 433.055 758.453 430.865C761.027 428.632 763.85 427.01 766.923 426.001C770.016 424.949 773.296 424.532 776.765 424.747C780.233 424.963 783.608 425.858 786.889 427.434C790.171 429.009 792.98 431.083 795.317 433.654C797.655 436.226 799.38 439.047 800.494 442.119C801.628 445.148 802.128 448.365 801.995 451.769C801.882 455.131 801.068 458.39 799.553 461.545ZM788.384 456.183C789.253 454.374 789.745 452.54 789.861 450.68C789.998 448.778 789.771 446.987 789.18 445.306C788.632 443.645 787.752 442.135 786.54 440.777C785.349 439.377 783.87 438.253 782.103 437.404C780.336 436.556 778.533 436.105 776.696 436.051C774.878 435.955 773.129 436.202 771.448 436.793C769.809 437.403 768.29 438.357 766.891 439.652C765.513 440.906 764.389 442.437 763.521 444.246C762.652 446.055 762.15 447.91 762.014 449.812C761.897 451.672 762.113 453.432 762.662 455.093C763.252 456.774 764.143 458.315 765.335 459.715C766.546 461.073 768.035 462.176 769.802 463.025C771.569 463.873 773.361 464.345 775.179 464.441C777.017 464.495 778.755 464.217 780.394 463.606C782.075 463.015 783.605 462.093 784.983 460.84C786.382 459.544 787.516 457.992 788.384 456.183ZM794.721 486.402L815.928 442.229L839.214 453.409C841.359 454.439 843.186 455.756 844.694 457.36C846.201 458.963 847.294 460.731 847.972 462.661C848.712 464.569 849.037 466.589 848.946 468.719C848.875 470.807 848.345 472.882 847.355 474.944C846.406 476.921 845.139 478.59 843.553 479.952C841.968 481.313 840.199 482.301 838.247 482.917C836.315 483.491 834.252 483.691 832.058 483.518C829.905 483.364 827.756 482.773 825.611 481.742L813.179 475.774L805.575 491.613L794.721 486.402ZM833.498 462.079L822.329 456.717L817.481 466.813L828.651 472.176C830.207 472.923 831.691 473.066 833.103 472.605C834.557 472.164 835.638 471.208 836.345 469.735C837.072 468.221 837.153 466.758 836.587 465.348C836.084 463.916 835.055 462.826 833.498 462.079ZM838.598 507.468L859.805 463.295L870.659 468.506L849.452 512.679L838.598 507.468ZM883.82 517.609C885.965 518.639 888.165 519.125 890.418 519.068C892.714 519.031 895.032 518.462 897.373 517.36L901.141 527.788C897.847 529.364 894.144 530.123 890.031 530.064C885.96 530.025 882.158 529.157 878.624 527.461C875.301 525.865 872.449 523.771 870.07 521.179C867.733 518.608 865.997 515.808 864.863 512.778C863.729 509.749 863.219 506.553 863.332 503.191C863.445 499.829 864.269 496.549 865.804 493.352C867.339 490.154 869.383 487.46 871.936 485.269C874.509 483.036 877.332 481.415 880.405 480.406C883.52 479.417 886.812 479.03 890.28 479.245C893.748 479.461 897.144 480.367 900.468 481.962C902.277 482.831 903.985 483.91 905.592 485.199C907.199 486.488 908.641 487.905 909.918 489.45C911.215 490.953 912.296 492.585 913.159 494.345C914.042 496.063 914.675 497.817 915.059 499.606L904.285 503.285C903.658 500.603 902.609 498.313 901.138 496.416C899.73 494.498 897.911 493.003 895.681 491.933C893.914 491.085 892.091 490.623 890.211 490.549C888.393 490.453 886.644 490.7 884.963 491.291C883.324 491.902 881.784 492.845 880.343 494.12C878.965 495.374 877.841 496.905 876.973 498.714C876.105 500.523 875.612 502.357 875.496 504.217C875.442 506.054 875.71 507.814 876.301 509.495C876.933 511.197 877.866 512.757 879.1 514.178C880.395 515.576 881.969 516.72 883.82 517.609ZM902.147 529.669L911.992 524.689C913.612 528.107 915.347 530.855 917.196 532.934C919.045 535.012 921.232 536.657 923.756 537.869C926.238 539.061 928.355 539.611 930.107 539.521C931.901 539.45 933.121 538.742 933.768 537.395C934.353 536.175 934.324 534.997 933.679 533.859C933.077 532.741 931.773 531.468 929.767 530.039L920.867 523.67C917.594 521.322 915.495 518.632 914.57 515.599C913.644 512.567 913.959 509.431 915.515 506.192C917.554 501.942 920.759 499.365 925.128 498.46C929.559 497.534 934.593 498.423 940.23 501.13C943.511 502.705 946.541 504.859 949.319 507.59C952.14 510.342 954.284 513.261 955.753 516.347L946.163 521.605C944.718 518.685 943.082 516.269 941.256 514.357C939.473 512.465 937.424 510.964 935.11 509.853C932.922 508.803 931.005 508.322 929.357 508.411C927.772 508.479 926.697 509.101 926.131 510.279C925.606 511.373 925.592 512.427 926.088 513.442C926.647 514.435 927.781 515.523 929.491 516.706L937.914 522.614C941.839 525.327 944.381 528.281 945.539 531.477C946.738 534.693 946.52 538.005 944.884 541.412C942.743 545.872 939.301 548.567 934.557 549.499C929.855 550.451 924.517 549.493 918.543 546.625C915.009 544.929 911.788 542.58 908.881 539.579C906.015 536.599 903.77 533.295 902.147 529.669Z" fill="#F8F8F8"/>
<path d="M717.902 406.97L708.887 402.642L704.559 411.657L713.574 415.985L717.902 406.97ZM722.507 397.378L726.835 388.363L717.82 384.035L713.492 393.05L722.507 397.378ZM762.262 416.465L771.277 420.793L775.605 411.778L766.591 407.45L762.262 416.465ZM757.657 426.056L753.329 435.071L762.344 439.399L766.672 430.385L757.657 426.056ZM743.207 419.119L747.535 410.104L738.52 405.776L734.192 414.791L743.207 419.119ZM726.604 453.7L722.276 462.715L731.291 467.043L735.619 458.028L726.604 453.7ZM715.75 448.489L706.735 444.161L702.407 453.176L711.422 457.504L715.75 448.489ZM732.353 413.908L741.368 418.236L745.696 409.221L736.681 404.893L732.353 413.908ZM726.917 411.298L731.522 401.706L713.492 393.05L708.887 402.642L726.917 411.298ZM718.179 406.393L757.934 425.48L766.591 407.45L726.835 388.363L718.179 406.393ZM753.248 412.137L748.643 421.728L766.672 430.385L771.277 420.793L753.248 412.137ZM761.985 417.042L747.535 410.104L738.879 428.134L753.329 435.071L761.985 417.042ZM734.192 414.791L717.589 449.372L735.619 458.028L752.221 423.447L734.192 414.791ZM730.932 444.685L720.078 439.474L711.422 457.504L722.276 462.715L730.932 444.685ZM724.765 452.817L741.368 418.236L723.338 409.58L706.735 444.161L724.765 452.817ZM736.681 404.893L722.23 397.955L713.574 415.985L728.025 422.923L736.681 404.893ZM793.421 469.627L799.934 477.216L799.955 477.198L799.975 477.18L793.421 469.627ZM784.952 474.491L788.073 483.992L788.122 483.975L788.171 483.959L784.952 474.491ZM775.14 475.682L775.761 465.701L775.761 465.701L775.14 475.682ZM756.588 466.775L763.988 460.049L763.988 460.049L756.588 466.775ZM751.381 458.373L741.98 461.783L741.997 461.831L742.015 461.879L751.381 458.373ZM749.879 448.723L739.887 448.332L739.886 448.36L739.885 448.387L749.879 448.723ZM758.453 430.865L764.966 438.453L764.986 438.435L765.007 438.417L758.453 430.865ZM766.923 426.001L770.043 435.502L770.092 435.485L770.141 435.469L766.923 426.001ZM800.494 442.119L791.093 445.528L791.111 445.576L791.129 445.624L800.494 442.119ZM801.995 451.769L792.003 451.378L792.002 451.405L792.001 451.433L801.995 451.769ZM789.861 450.68L779.887 449.964L779.884 450.01L779.881 450.056L789.861 450.68ZM789.18 445.306L779.684 448.441L779.714 448.531L779.745 448.62L789.18 445.306ZM786.54 440.777L778.924 447.257L779 447.346L779.078 447.434L786.54 440.777ZM776.696 436.051L776.168 446.037L776.285 446.043L776.402 446.047L776.696 436.051ZM771.448 436.793L768.134 427.358L768.045 427.389L767.956 427.422L771.448 436.793ZM766.891 439.652L773.62 447.05L773.654 447.019L773.687 446.988L766.891 439.652ZM762.014 449.812L752.039 449.096L752.036 449.142L752.033 449.188L762.014 449.812ZM762.662 455.093L753.166 458.228L753.196 458.318L753.227 458.407L762.662 455.093ZM765.335 459.715L757.718 466.195L757.794 466.284L757.872 466.372L765.335 459.715ZM775.179 464.441L774.651 474.427L774.768 474.433L774.885 474.437L775.179 464.441ZM780.394 463.606L777.08 454.171L776.991 454.202L776.903 454.235L780.394 463.606ZM784.983 460.84L791.712 468.238L791.746 468.207L791.78 468.175L784.983 460.84ZM790.539 457.217C789.599 459.175 788.38 460.762 786.867 462.075L799.975 477.18C803.609 474.027 806.479 470.226 808.568 465.873L790.539 457.217ZM786.909 462.039C785.295 463.424 783.583 464.394 781.733 465.023L788.171 483.959C792.508 482.484 796.442 480.213 799.934 477.216L786.909 462.039ZM781.831 464.99C780.051 465.575 778.058 465.844 775.761 465.701L774.52 485.662C779.159 485.951 783.707 485.426 788.073 483.992L781.831 464.99ZM775.761 465.701C773.64 465.569 771.519 465.025 769.344 463.98L760.688 482.01C765.075 484.116 769.704 485.363 774.52 485.662L775.761 465.701ZM769.344 463.98C767.168 462.936 765.417 461.621 763.988 460.049L749.187 473.501C752.432 477.071 756.3 479.904 760.688 482.01L769.344 463.98ZM763.988 460.049C762.44 458.346 761.403 456.622 760.746 454.868L742.015 461.879C743.626 466.183 746.061 470.06 749.187 473.501L763.988 460.049ZM760.782 454.964C760.116 453.128 759.802 451.185 759.874 449.059L739.885 448.387C739.731 452.986 740.418 457.476 741.98 461.783L760.782 454.964ZM759.872 449.114C759.95 447.113 760.426 445.17 761.366 443.212L743.337 434.556C741.247 438.908 740.075 443.525 739.887 448.332L759.872 449.114ZM761.366 443.212C762.307 441.253 763.506 439.706 764.966 438.453L751.941 423.276C748.294 426.405 745.426 430.203 743.337 434.556L761.366 443.212ZM765.007 438.417C766.631 437.008 768.3 436.074 770.043 435.502L763.802 416.5C759.4 417.947 755.422 420.255 751.899 423.312L765.007 438.417ZM770.141 435.469C771.923 434.863 773.893 434.588 776.144 434.728L777.385 414.766C772.7 414.475 768.108 415.036 763.704 416.533L770.141 435.469ZM776.144 434.728C778.265 434.86 780.386 435.404 782.561 436.449L791.217 418.419C786.83 416.313 782.201 415.066 777.385 414.766L776.144 434.728ZM782.561 436.449C784.737 437.493 786.488 438.807 787.917 440.38L802.718 426.928C799.472 423.358 795.605 420.525 791.217 418.419L782.561 436.449ZM787.917 440.38C789.434 442.049 790.451 443.758 791.093 445.528L809.895 438.709C808.309 434.336 805.875 430.402 802.718 426.928L787.917 440.38ZM791.129 445.624C791.772 447.344 792.087 449.229 792.003 451.378L811.988 452.16C812.17 447.5 811.484 442.952 809.859 438.613L791.129 445.624ZM792.001 451.433C791.936 453.355 791.479 455.259 790.539 457.217L808.568 465.873C810.658 461.521 811.828 456.907 811.99 452.105L792.001 451.433ZM797.399 460.511C798.781 457.631 799.639 454.545 799.842 451.304L779.881 450.056C779.851 450.534 779.724 451.117 779.369 451.855L797.399 460.511ZM799.836 451.396C800.063 448.225 799.69 445.054 798.615 441.992L779.745 448.62C779.851 448.92 779.932 449.332 779.887 449.964L799.836 451.396ZM798.676 442.17C797.68 439.156 796.088 436.458 794.002 434.12L779.078 447.434C779.415 447.812 779.583 448.134 779.684 448.441L798.676 442.17ZM794.156 434.297C791.999 431.762 789.374 429.803 786.431 428.389L777.775 446.419C778.365 446.703 778.698 446.992 778.924 447.257L794.156 434.297ZM786.431 428.389C783.487 426.976 780.317 426.153 776.989 426.055L776.402 446.047C776.75 446.057 777.184 446.136 777.775 446.419L786.431 428.389ZM777.224 426.065C774.13 425.901 771.074 426.325 768.134 427.358L774.762 446.227C775.184 446.079 775.626 446.008 776.168 446.037L777.224 426.065ZM767.956 427.422C764.987 428.528 762.365 430.214 760.095 432.317L773.687 446.988C774.214 446.5 774.63 446.278 774.939 446.163L767.956 427.422ZM760.163 432.254C757.76 434.439 755.889 437.038 754.506 439.918L772.536 448.574C772.89 447.836 773.265 447.372 773.62 447.05L760.163 432.254ZM754.506 439.918C753.123 442.8 752.27 445.876 752.039 449.096L771.988 450.528C772.03 449.945 772.182 449.31 772.536 448.574L754.506 439.918ZM752.033 449.188C751.842 452.236 752.192 455.279 753.166 458.228L772.158 451.957C772.034 451.584 771.952 451.107 771.994 450.436L752.033 449.188ZM753.227 458.407C754.237 461.283 755.757 463.89 757.718 466.195L772.951 453.235C772.529 452.739 772.268 452.265 772.097 451.779L753.227 458.407ZM757.872 466.372C760.029 468.789 762.61 470.664 765.474 472.039L774.13 454.01C773.461 453.688 773.064 453.357 772.797 453.058L757.872 466.372ZM765.474 472.039C768.339 473.415 771.417 474.256 774.651 474.427L775.707 454.455C775.306 454.434 774.8 454.331 774.13 454.01L765.474 472.039ZM774.885 474.437C777.946 474.527 780.976 474.061 783.886 472.977L776.903 454.235C776.534 454.373 776.087 454.463 775.473 454.445L774.885 474.437ZM783.708 473.041C786.71 471.987 789.389 470.35 791.712 468.238L778.255 453.442C777.821 453.837 777.441 454.044 777.08 454.171L783.708 473.041ZM791.78 468.175C794.148 465.981 796.015 463.393 797.399 460.511L779.369 451.855C779.016 452.591 778.616 453.107 778.187 453.504L791.78 468.175ZM794.721 486.402L785.706 482.074L781.378 491.089L790.393 495.417L794.721 486.402ZM815.928 442.229L820.256 433.214L811.241 428.886L806.913 437.901L815.928 442.229ZM844.694 457.36L837.407 464.209L837.407 464.209L844.694 457.36ZM847.972 462.661L838.537 465.975L838.591 466.127L838.649 466.277L847.972 462.661ZM848.946 468.719L838.955 468.292L838.953 468.336L838.952 468.38L848.946 468.719ZM838.247 482.917L841.094 492.504L841.175 492.479L841.255 492.454L838.247 482.917ZM832.058 483.518L832.846 473.549L832.807 473.546L832.768 473.543L832.058 483.518ZM813.179 475.774L817.507 466.759L808.492 462.431L804.164 471.446L813.179 475.774ZM805.575 491.613L801.247 500.628L810.262 504.956L814.59 495.941L805.575 491.613ZM822.329 456.717L826.657 447.702L817.642 443.374L813.314 452.389L822.329 456.717ZM817.481 466.813L808.466 462.485L804.138 471.5L813.153 475.828L817.481 466.813ZM833.103 472.605L830.202 463.035L830.101 463.066L830 463.099L833.103 472.605ZM836.587 465.348L827.153 468.662L827.225 468.867L827.305 469.069L836.587 465.348ZM803.736 490.73L824.943 446.557L806.913 437.901L785.706 482.074L803.736 490.73ZM811.6 451.244L834.886 462.424L843.542 444.394L820.256 433.214L811.6 451.244ZM834.886 462.424C836.011 462.964 836.81 463.573 837.407 464.209L851.98 450.51C849.562 447.938 846.708 445.914 843.542 444.394L834.886 462.424ZM837.407 464.209C838.034 464.875 838.356 465.458 838.537 465.975L857.407 459.347C856.233 456.003 854.369 453.052 851.98 450.51L837.407 464.209ZM838.649 466.277C838.869 466.845 838.99 467.482 838.955 468.292L858.937 469.146C859.084 465.695 858.556 462.294 857.295 459.044L838.649 466.277ZM838.952 468.38C838.932 468.96 838.788 469.683 838.34 470.616L856.37 479.272C857.902 476.082 858.818 472.655 858.94 469.058L838.952 468.38ZM838.34 470.616C837.96 471.409 837.522 471.95 837.039 472.365L850.068 487.538C852.755 485.231 854.852 482.433 856.37 479.272L838.34 470.616ZM837.039 472.365C836.457 472.865 835.875 473.18 835.239 473.38L841.255 492.454C844.523 491.423 847.479 489.761 850.068 487.538L837.039 472.365ZM835.4 473.331C834.75 473.524 833.929 473.634 832.846 473.549L831.269 493.486C834.575 493.748 837.88 493.458 841.094 492.504L835.4 473.331ZM832.768 473.543C831.994 473.488 831.066 473.269 829.939 472.728L821.283 490.757C824.446 492.276 827.816 493.241 831.347 493.492L832.768 473.543ZM829.939 472.728L817.507 466.759L808.851 484.789L821.283 490.757L829.939 472.728ZM804.164 471.446L796.56 487.285L814.59 495.941L822.194 480.102L804.164 471.446ZM809.903 482.598L799.049 477.387L790.393 495.417L801.247 500.628L809.903 482.598ZM837.826 453.064L826.657 447.702L818.001 465.732L829.17 471.094L837.826 453.064ZM813.314 452.389L808.466 462.485L826.496 471.141L831.343 461.045L813.314 452.389ZM813.153 475.828L824.323 481.191L832.979 463.161L821.809 457.798L813.153 475.828ZM824.323 481.191C827.796 482.858 831.951 483.501 836.207 482.111L830 463.099C830.608 462.9 831.268 462.83 831.891 462.89C832.487 462.947 832.863 463.105 832.979 463.161L824.323 481.191ZM836.005 482.175C840.359 480.855 843.542 477.85 845.36 474.063L827.33 465.407C827.478 465.1 827.794 464.584 828.375 464.07C828.97 463.544 829.626 463.21 830.202 463.035L836.005 482.175ZM845.36 474.063C847.157 470.319 847.594 465.931 845.869 461.627L827.305 469.069C827.065 468.47 826.923 467.733 826.966 466.95C827.008 466.193 827.208 465.66 827.33 465.407L845.36 474.063ZM846.022 462.034C844.517 457.749 841.416 454.788 837.826 453.064L829.17 471.094C829.01 471.017 828.613 470.794 828.17 470.325C827.709 469.838 827.36 469.253 827.153 468.662L846.022 462.034ZM838.598 507.468L829.583 503.14L825.255 512.155L834.27 516.483L838.598 507.468ZM859.805 463.295L864.133 454.28L855.118 449.952L850.79 458.967L859.805 463.295ZM870.659 468.506L879.674 472.834L884.002 463.819L874.987 459.491L870.659 468.506ZM849.452 512.679L845.124 521.693L854.139 526.021L858.467 517.007L849.452 512.679ZM847.613 511.796L868.82 467.623L850.79 458.967L829.583 503.14L847.613 511.796ZM855.477 472.31L866.331 477.52L874.987 459.491L864.133 454.28L855.477 472.31ZM861.644 464.178L840.437 508.351L858.467 517.007L879.674 472.834L861.644 464.178ZM853.78 503.664L842.926 498.453L834.27 516.483L845.124 521.693L853.78 503.664ZM890.418 519.068L890.258 509.07L890.211 509.07L890.165 509.071L890.418 519.068ZM897.373 517.36L906.778 513.962L903.047 503.636L893.113 508.312L897.373 517.36ZM901.141 527.788L905.458 536.808L913.621 532.9L910.545 524.39L901.141 527.788ZM890.031 530.064L890.175 520.065L890.151 520.065L890.127 520.064L890.031 530.064ZM870.07 521.179L862.67 527.905L862.687 527.924L862.703 527.942L870.07 521.179ZM864.863 512.778L855.498 516.284L855.498 516.284L864.863 512.778ZM863.332 503.191L853.337 502.855L853.337 502.855L863.332 503.191ZM871.936 485.269L878.448 492.858L878.469 492.84L878.49 492.822L871.936 485.269ZM880.405 480.406L877.378 470.875L877.331 470.89L877.284 470.905L880.405 480.406ZM909.918 489.45L902.21 495.822L902.278 495.904L902.348 495.985L909.918 489.45ZM913.159 494.345L904.18 498.748L904.222 498.833L904.265 498.917L913.159 494.345ZM915.059 499.606L918.291 509.069L926.7 506.197L924.837 497.509L915.059 499.606ZM904.285 503.285L894.548 505.563L897.064 516.318L907.517 512.748L904.285 503.285ZM901.138 496.416L893.077 502.334L893.155 502.44L893.235 502.544L901.138 496.416ZM890.211 490.549L889.683 500.535L889.75 500.539L889.817 500.541L890.211 490.549ZM884.963 491.291L881.649 481.856L881.56 481.887L881.471 481.92L884.963 491.291ZM880.343 494.12L873.714 486.633L873.664 486.677L873.615 486.722L880.343 494.12ZM875.496 504.217L865.515 503.593L865.505 503.758L865.5 503.923L875.496 504.217ZM876.301 509.495L866.866 512.809L866.896 512.895L866.928 512.98L876.301 509.495ZM879.1 514.178L871.549 520.734L871.655 520.856L871.764 520.974L879.1 514.178ZM879.492 526.624C882.983 528.3 886.746 529.164 890.671 529.065L890.165 509.071C889.584 509.086 888.948 508.978 888.148 508.594L879.492 526.624ZM890.579 529.067C894.462 529.005 898.171 528.037 901.632 526.407L893.113 508.312C891.892 508.887 890.965 509.058 890.258 509.07L890.579 529.067ZM887.968 520.758L891.736 531.186L910.545 524.39L906.778 513.962L887.968 520.758ZM896.823 518.768C895.088 519.598 892.942 520.105 890.175 520.065L889.887 540.063C895.346 540.141 900.606 539.131 905.458 536.808L896.823 518.768ZM890.127 520.064C887.464 520.039 885.113 519.483 882.952 518.446L874.296 536.475C879.203 538.831 884.457 540.011 889.935 540.063L890.127 520.064ZM882.952 518.446C880.72 517.374 878.915 516.027 877.436 514.417L862.703 527.942C865.984 531.516 869.881 534.356 874.296 536.475L882.952 518.446ZM877.47 514.454C875.922 512.751 874.885 511.027 874.228 509.272L855.498 516.284C857.109 520.588 859.543 524.465 862.67 527.905L877.47 514.454ZM874.228 509.272C873.572 507.519 873.255 505.633 873.326 503.527L853.337 502.855C853.182 507.473 853.886 511.979 855.498 516.284L874.228 509.272ZM873.326 503.527C873.39 501.623 873.85 499.697 874.818 497.68L856.789 489.024C854.687 493.4 853.499 498.034 853.337 502.855L873.326 503.527ZM874.818 497.68C875.787 495.662 877.002 494.099 878.448 492.858L865.423 477.681C861.763 480.822 858.89 484.647 856.789 489.024L874.818 497.68ZM878.49 492.822C880.114 491.413 881.782 490.479 883.526 489.906L877.284 470.905C872.882 472.351 868.904 474.66 865.382 477.717L878.49 492.822ZM883.432 489.937C885.296 489.345 887.345 489.082 889.659 489.226L890.901 469.265C886.278 468.977 881.744 469.488 877.378 470.875L883.432 489.937ZM889.659 489.226C891.764 489.357 893.906 489.905 896.14 490.977L904.796 472.947C900.382 470.828 895.732 469.565 890.901 469.265L889.659 489.226ZM896.14 490.977C897.243 491.507 898.306 492.174 899.334 492.999L911.849 477.399C909.663 475.645 907.31 474.155 904.796 472.947L896.14 490.977ZM899.334 492.999C900.425 493.874 901.379 494.815 902.21 495.822L917.625 483.079C915.903 480.995 913.972 479.102 911.849 477.399L899.334 492.999ZM902.348 495.985C903.094 496.848 903.698 497.765 904.18 498.748L922.137 489.942C920.893 487.404 919.337 485.058 917.488 482.916L902.348 495.985ZM904.265 498.917C904.769 499.896 905.092 500.821 905.281 501.702L924.837 497.509C924.259 494.813 923.315 492.23 922.052 489.773L904.265 498.917ZM911.827 490.142L901.053 493.822L907.517 512.748L918.291 509.069L911.827 490.142ZM914.022 501.007C913.116 497.131 911.514 493.478 909.041 490.289L893.235 502.544C893.703 503.148 894.2 504.074 894.548 505.563L914.022 501.007ZM909.199 490.499C906.781 487.204 903.658 484.67 900.009 482.918L891.353 500.948C892.163 501.337 892.678 501.791 893.077 502.334L909.199 490.499ZM900.009 482.918C897.064 481.504 893.906 480.687 890.605 480.557L889.817 500.541C890.275 500.559 890.764 500.665 891.353 500.948L900.009 482.918ZM890.739 480.563C887.645 480.4 884.589 480.823 881.649 481.856L888.277 500.726C888.699 500.577 889.141 500.507 889.683 500.535L890.739 480.563ZM881.471 481.92C878.57 483.001 875.984 484.624 873.714 486.633L886.972 501.607C887.584 501.066 888.078 500.802 888.454 500.661L881.471 481.92ZM873.615 486.722C871.212 488.907 869.341 491.506 867.958 494.386L885.988 503.042C886.342 502.304 886.717 501.84 887.072 501.518L873.615 486.722ZM867.958 494.386C866.576 497.266 865.718 500.352 865.515 503.593L885.476 504.841C885.506 504.363 885.633 503.78 885.988 503.042L867.958 494.386ZM865.5 503.923C865.411 506.948 865.856 509.933 866.866 512.809L885.736 506.181C885.565 505.695 885.472 505.161 885.492 504.511L865.5 503.923ZM866.928 512.98C867.994 515.847 869.558 518.441 871.549 520.734L886.65 507.621C886.175 507.074 885.873 506.546 885.674 506.01L866.928 512.98ZM871.764 520.974C873.978 523.364 876.596 525.233 879.492 526.624L888.148 508.594C887.342 508.207 886.813 507.789 886.435 507.382L871.764 520.974ZM902.147 529.669L897.633 520.745L889.122 525.05L893.02 533.755L902.147 529.669ZM911.992 524.689L921.028 520.405L916.633 511.135L907.478 515.766L911.992 524.689ZM917.196 532.934L909.725 539.581L917.196 532.934ZM930.107 539.521L929.714 529.528L929.652 529.531L929.59 529.534L930.107 539.521ZM933.679 533.859L924.877 538.604L924.927 538.696L924.979 538.788L933.679 533.859ZM929.767 530.039L923.947 538.171L923.956 538.178L923.965 538.184L929.767 530.039ZM920.867 523.67L915.038 531.796L915.047 531.802L920.867 523.67ZM914.57 515.599L905.005 518.518L905.005 518.518L914.57 515.599ZM925.128 498.46L927.156 508.253L927.166 508.251L927.175 508.249L925.128 498.46ZM949.319 507.59L942.308 514.721L942.322 514.734L942.336 514.748L949.319 507.59ZM955.753 516.347L960.56 525.116L968.841 520.577L964.783 512.05L955.753 516.347ZM946.163 521.605L937.201 526.041L941.827 535.386L950.97 530.373L946.163 521.605ZM941.256 514.357L933.981 521.217L934.002 521.24L934.024 521.263L941.256 514.357ZM929.357 508.411L929.781 518.402L929.839 518.4L929.897 518.397L929.357 508.411ZM926.088 513.442L917.105 517.836L917.232 518.094L917.373 518.345L926.088 513.442ZM929.491 516.706L935.233 508.519L935.207 508.501L935.181 508.483L929.491 516.706ZM937.914 522.614L932.172 530.801L932.2 530.821L932.228 530.84L937.914 522.614ZM945.539 531.477L936.136 534.882L936.153 534.927L936.169 534.972L945.539 531.477ZM934.557 549.499L932.629 539.687L932.601 539.692L932.572 539.698L934.557 549.499ZM908.881 539.579L901.672 546.51L901.686 546.524L901.699 546.538L908.881 539.579ZM906.66 538.592L916.505 533.613L907.478 515.766L897.633 520.745L906.66 538.592ZM902.956 528.973C904.847 532.963 907.064 536.59 909.725 539.581L924.667 526.287C923.63 525.12 922.377 523.251 921.028 520.405L902.956 528.973ZM909.725 539.581C912.461 542.655 915.718 545.103 919.428 546.884L928.084 528.854C926.746 528.212 925.63 527.369 924.667 526.287L909.725 539.581ZM919.428 546.884C922.641 548.427 926.512 549.72 930.624 549.507L929.59 529.534C929.951 529.515 930.025 529.576 929.722 529.498C929.423 529.42 928.886 529.239 928.084 528.854L919.428 546.884ZM930.5 549.513C935.097 549.332 940.178 547.148 942.782 541.723L924.753 533.067C925.244 532.044 926.118 531.001 927.347 530.288C928.479 529.631 929.415 529.54 929.714 529.528L930.5 549.513ZM942.782 541.723C944.726 537.675 944.704 533.033 942.38 528.93L924.979 538.788C924.581 538.085 924.218 537.071 924.188 535.845C924.158 534.634 924.462 533.672 924.753 533.067L942.782 541.723ZM942.482 529.114C940.748 525.897 937.863 523.528 935.569 521.895L923.965 538.184C924.684 538.696 925.083 539.044 925.264 539.221C925.348 539.303 925.341 539.306 925.278 539.227C925.217 539.15 925.06 538.943 924.877 538.604L942.482 529.114ZM935.587 521.907L926.687 515.538L915.047 531.802L923.947 538.171L935.587 521.907ZM926.696 515.544C924.718 514.125 924.264 513.105 924.134 512.681L905.005 518.518C906.726 524.159 910.47 528.519 915.038 531.796L926.696 515.544ZM924.134 512.681C924.04 512.37 923.904 511.822 924.529 510.52L906.5 501.863C904.015 507.04 903.249 512.763 905.005 518.518L924.134 512.681ZM924.529 510.52C925.308 508.897 926.036 508.485 927.156 508.253L923.099 488.668C915.482 490.246 909.8 494.988 906.5 501.863L924.529 510.52ZM927.175 508.249C928.766 507.916 931.504 508.033 935.902 510.145L944.558 492.115C937.682 488.814 930.351 487.151 923.08 488.672L927.175 508.249ZM935.902 510.145C938.124 511.211 940.26 512.706 942.308 514.721L956.33 500.459C952.823 497.011 948.899 494.199 944.558 492.115L935.902 510.145ZM942.336 514.748C944.438 516.798 945.833 518.774 946.723 520.645L964.783 512.05C962.735 507.747 959.842 503.885 956.303 500.433L942.336 514.748ZM950.946 507.578L941.356 512.836L950.97 530.373L960.56 525.116L950.946 507.578ZM955.125 517.168C953.331 513.544 951.153 510.241 948.488 507.451L934.024 521.263C935.012 522.297 936.104 523.825 937.201 526.041L955.125 517.168ZM948.532 507.497C945.918 504.724 942.873 502.487 939.438 500.838L930.782 518.868C931.975 519.441 933.028 520.207 933.981 521.217L948.532 507.497ZM939.438 500.838C936.398 499.379 932.75 498.213 928.818 498.426L929.897 518.397C929.547 518.416 929.426 518.361 929.6 518.405C929.777 518.449 930.164 518.572 930.782 518.868L939.438 500.838ZM928.934 498.42C924.603 498.604 919.652 500.671 917.116 505.951L935.146 514.607C934.606 515.731 933.666 516.834 932.372 517.583C931.178 518.275 930.168 518.386 929.781 518.402L928.934 498.42ZM917.116 505.951C915.38 509.569 915.153 513.846 917.105 517.836L935.071 509.048C935.462 509.847 935.741 510.874 935.726 512.027C935.71 513.155 935.418 514.042 935.146 514.607L917.116 505.951ZM917.373 518.345C919.06 521.344 921.709 523.482 923.8 524.929L935.181 508.483C934.916 508.3 934.711 508.146 934.557 508.023C934.402 507.899 934.315 507.82 934.281 507.787C934.245 507.752 934.285 507.787 934.372 507.894C934.458 508 934.621 508.214 934.803 508.539L917.373 518.345ZM923.749 524.893L932.172 530.801L943.656 514.426L935.233 508.519L923.749 524.893ZM932.228 530.84C935.114 532.834 935.921 534.287 936.136 534.882L954.941 528.071C952.841 522.275 948.565 517.819 943.599 514.387L932.228 530.84ZM936.169 534.972C936.317 535.369 936.46 535.853 935.869 537.084L953.899 545.74C956.58 540.156 957.159 534.017 954.908 527.982L936.169 534.972ZM935.869 537.084C935.056 538.778 934.194 539.379 932.629 539.687L936.484 559.312C944.407 557.755 950.43 552.966 953.899 545.74L935.869 537.084ZM932.572 539.698C930.684 540.081 927.617 539.889 922.871 537.611L914.215 555.64C921.417 559.098 929.025 560.822 936.541 559.3L932.572 539.698ZM922.871 537.611C920.471 536.458 918.202 534.829 916.062 532.621L901.699 546.538C905.375 550.331 909.547 553.399 914.215 555.64L922.871 537.611ZM916.089 532.649C913.989 530.465 912.408 528.115 911.274 525.582L893.02 533.755C895.133 538.475 898.041 542.733 901.672 546.51L916.089 532.649Z" fill="#0F1B35"/>
</svg>
