<svg width="1108" height="769" viewBox="0 0 1108 769" fill="none" xmlns="http://www.w3.org/2000/svg">
<path d="M623.108 320.329L622.372 320.585L621.945 319.933C607.43 297.818 579.144 287.853 553.684 296.683C523.131 307.28 506.894 340.759 517.491 371.313C525.313 393.867 541.29 409.949 563.73 417.86C569.694 419.962 575.941 421.424 582.335 422.332L582.939 422.417L583.139 422.994L623.197 538.492C626.357 547.606 632.874 554.938 641.553 559.148L886.978 678.173C894.069 681.613 901.898 681.847 908.817 679.447C915.736 677.047 921.739 672.016 925.178 664.925L1036.67 435.028C1043.55 420.844 1037.61 403.707 1023.42 396.828L778 277.802C769.32 273.594 759.526 273.017 750.414 276.177L623.108 320.329ZM1018.15 407.707L1017.71 408.606L1018.15 407.707C1026.33 411.678 1029.76 421.565 1025.79 429.752L1024.89 429.316L1025.79 429.752L914.3 659.649C910.329 667.837 900.442 671.266 892.254 667.295L646.829 548.27C641.059 545.471 636.721 540.59 634.62 534.532L596.563 424.802L596.097 423.457L597.52 423.474C611.071 423.635 624.78 421.638 637.441 418.167L638.135 417.976L638.536 418.574C647.453 431.871 664.543 438.067 680.357 432.582C699.165 426.059 709.161 405.448 702.638 386.64C696.115 367.832 675.504 357.836 656.696 364.359C639.389 370.361 629.554 388.295 633.177 405.774L633.37 406.706L632.449 406.945C619.731 410.242 605.882 411.939 592.493 411.178L591.825 411.14L591.605 410.507L576.438 366.776C573.457 358.18 578.024 348.763 586.62 345.781L754.376 287.6C760.434 285.499 766.953 285.883 772.723 288.681L1018.15 407.707ZM651.243 415.132L650.195 414.048L651.601 413.505C659.045 410.626 665.865 407.267 671.734 403.595C674.563 401.824 675.422 398.094 673.652 395.264C671.881 392.433 668.149 391.574 665.321 393.346L665.32 393.346C659.797 396.802 653.258 399.962 646.094 402.642L644.929 403.077L644.753 401.846C643.168 390.704 649.632 379.607 660.659 375.782C673.17 371.443 686.877 378.091 691.216 390.602C695.555 403.113 688.908 416.82 676.397 421.159C667.282 424.321 657.54 421.645 651.243 415.132ZM577.837 407.707L578.427 409.407L576.671 409.01C573.632 408.322 570.648 407.479 567.751 406.457L568.074 405.539L567.75 406.457C548.657 399.725 535.572 386.548 528.913 367.351C520.501 343.095 533.39 316.519 557.646 308.106C576.688 301.502 597.707 308.124 609.714 323.577L610.569 324.678L609.252 325.135L582.659 334.358C567.765 339.524 559.85 355.845 565.015 370.738L577.837 407.707Z" fill="#F8F8F8" stroke="#0F1B35" stroke-width="2"/>
<path d="M4.14062 215.811C4.84477 139.775 85.821 103.615 145.693 138.57L145.927 138.707H146.197C167.096 138.707 187.609 133.232 206.68 125.699V181.195C199.622 183.596 192.537 185.581 185.252 187.227L184.143 187.478L184.533 188.546C187.338 196.224 188.995 204.001 188.995 212.203C188.995 259.981 159.959 296.455 113.65 305.172L113.639 305.174L113.629 305.176C106.52 306.673 100.74 308.955 96.7441 312.946C92.7138 316.97 90.6267 322.6 90.6267 330.496C90.6267 336.212 92.4961 340.771 95.7724 344.487C99.0253 348.177 103.626 350.995 109.032 353.337C116.555 356.597 125.858 359.02 135.601 361.558C139.796 362.65 144.072 363.764 148.323 364.975C162.545 369.027 176.605 374.187 187.111 383.264C197.563 392.294 204.568 405.263 204.568 425.131C204.568 457.633 193.753 479.019 175.812 492.322C157.815 505.667 132.485 511 103.232 511C79.2204 511 53.6132 506.924 34.0447 495.606C14.5436 484.327 1 465.843 1 436.8C1 419.937 6.00197 406.69 14.7566 396.392C23.5254 386.077 36.1194 378.65 51.4094 373.557L52.0933 373.329V372.608V371.456V370.897L51.6176 370.605C37.9232 362.172 32.4159 346.159 32.9993 330.942C33.2904 323.348 35.1007 316.015 38.1205 310.019C41.144 304.015 45.3424 299.42 50.3713 297.169L50.9627 296.904V296.256V295.104V294.388L50.2846 294.157C36.3359 289.414 24.7982 277.306 16.7316 262.682C8.67073 248.07 4.15733 231.088 4.15733 216.811V215.811H4.14062ZM102.101 403.011H101.101V403.036C91.3175 403.108 80.3833 404.263 71.7521 408.491C67.2728 410.686 63.3848 413.722 60.6128 417.887C57.8375 422.057 56.2221 427.298 56.1947 433.831V433.835C56.1947 440.466 58.0917 445.701 61.2954 449.796C64.4882 453.877 68.9286 456.763 73.9236 458.801C83.8879 462.865 96.2676 463.635 106.048 463.635C116.368 463.635 127.209 462.35 135.5 457.827C139.663 455.557 143.198 452.462 145.687 448.298C148.177 444.133 149.587 438.957 149.587 432.576C149.587 426.1 147.823 420.96 144.824 416.915C141.832 412.881 137.659 410.001 132.934 407.952C123.512 403.866 111.717 403.011 102.101 403.011ZM97.496 257.013V257.043H98.496C110.967 257.043 119.666 252.952 125.213 245.755C130.723 238.606 133 228.551 133.011 216.854V216.853C133.011 188.765 115.425 174.302 97.6002 174.299C88.7244 174.297 79.8528 177.894 73.2071 185.111C66.5579 192.331 62.1893 203.115 62.1893 217.408C62.1893 229.417 64.8385 239.343 70.7793 246.277C76.5857 253.055 85.4008 256.818 97.496 257.013Z" fill="#F8F8F8" stroke="#0F1B35" stroke-width="2"/>
<path d="M436.288 323.069C446.87 323.069 459.218 320.182 468.333 314.438V367.985C453.617 375.992 434.647 378.776 417.985 378.755H417.984C403.029 378.755 391.452 375.767 382.484 370.576C373.522 365.388 367.101 357.961 362.515 348.97C353.315 330.933 351.528 306.668 351.528 281.813V182.589H352.083V181.589V180.437V179.437H351.083C349.151 179.437 347.683 179.327 346.258 179.204C346.093 179.19 345.928 179.175 345.763 179.161C344.502 179.051 343.223 178.939 341.675 178.902C338.309 178.82 333.703 179.091 325.011 180.422V128.296H351.083H352.083V127.296C352.083 123.844 352.089 120.675 352.095 117.746C352.131 99.8303 352.149 90.9044 350.579 81.2134H412.227C410.5 94.0307 410.579 106.758 410.658 119.398C410.674 122.034 410.691 124.667 410.691 127.296V128.296H411.691H468.248V180.56C467.581 180.529 466.603 180.485 465.327 180.432C462.722 180.323 458.877 180.179 453.914 180.035C443.988 179.747 429.589 179.459 411.691 179.459H410.691V180.459V284.565C410.691 293.063 411.623 302.628 415.267 310.1C417.096 313.851 419.624 317.106 423.087 319.42C426.556 321.737 430.9 323.069 436.288 323.069Z" fill="#F8F8F8" stroke="#0F1B35" stroke-width="2"/>
<path d="M228.584 41.9413C228.584 20.3057 244.601 1 266.496 1C288.125 1 303.619 20.995 303.619 41.9413C303.619 62.9017 287.595 82.328 266.496 82.328C244.8 82.328 228.584 63.1985 228.584 41.9413Z" fill="#F8F8F8" stroke="#0F1B35" stroke-width="2"/>
<path d="M296.539 128.083C296.082 133.634 295.752 149.279 295.533 170.114C295.296 192.632 295.189 221.303 295.202 250.094C295.228 305.866 295.704 362.182 296.563 375H236.087C236.946 362.139 237.422 305.866 237.448 250.126C237.461 221.357 237.354 192.704 237.118 170.186C236.899 149.335 236.568 133.667 236.11 128.083H296.539Z" fill="#F8F8F8" stroke="#0F1B35" stroke-width="2"/>
<path d="M717.902 406.97L722.507 397.378L762.262 416.465L757.657 426.056L743.207 419.119L726.604 453.7L715.75 448.489L732.353 413.908L717.902 406.97ZM799.553 461.545C798.039 464.7 795.995 467.394 793.421 469.627C790.868 471.818 788.045 473.439 784.952 474.491C781.879 475.5 778.609 475.897 775.14 475.682C771.672 475.466 768.297 474.57 765.016 472.995C761.734 471.42 758.925 469.346 756.588 466.775C754.25 464.203 752.515 461.403 751.381 458.373C750.267 455.302 749.766 452.085 749.879 448.723C750.013 445.319 750.837 442.039 752.352 438.884C753.866 435.728 755.9 433.055 758.453 430.865C761.027 428.632 763.85 427.01 766.923 426.001C770.016 424.949 773.296 424.532 776.765 424.747C780.233 424.963 783.608 425.858 786.889 427.434C790.171 429.009 792.98 431.083 795.317 433.654C797.655 436.226 799.38 439.047 800.494 442.119C801.628 445.148 802.128 448.365 801.995 451.769C801.882 455.131 801.068 458.39 799.553 461.545ZM788.384 456.183C789.253 454.374 789.745 452.54 789.861 450.68C789.998 448.778 789.771 446.987 789.18 445.306C788.632 443.645 787.752 442.135 786.54 440.777C785.349 439.377 783.87 438.253 782.103 437.404C780.336 436.556 778.533 436.105 776.696 436.051C774.878 435.955 773.129 436.202 771.448 436.793C769.809 437.403 768.29 438.357 766.891 439.652C765.513 440.906 764.389 442.437 763.521 444.246C762.652 446.055 762.15 447.91 762.014 449.812C761.897 451.672 762.113 453.432 762.662 455.093C763.252 456.774 764.143 458.315 765.335 459.715C766.546 461.073 768.035 462.176 769.802 463.025C771.569 463.873 773.361 464.345 775.179 464.441C777.017 464.495 778.755 464.217 780.394 463.606C782.075 463.015 783.605 462.093 784.983 460.84C786.382 459.544 787.516 457.992 788.384 456.183ZM794.721 486.402L815.928 442.229L839.214 453.409C841.359 454.439 843.186 455.756 844.694 457.36C846.201 458.963 847.294 460.731 847.972 462.661C848.712 464.569 849.037 466.589 848.946 468.719C848.875 470.807 848.345 472.882 847.355 474.944C846.406 476.921 845.139 478.59 843.553 479.952C841.968 481.313 840.199 482.301 838.247 482.917C836.315 483.491 834.252 483.691 832.058 483.518C829.905 483.364 827.756 482.773 825.611 481.742L813.179 475.774L805.575 491.613L794.721 486.402ZM833.498 462.079L822.329 456.717L817.481 466.813L828.651 472.176C830.207 472.923 831.691 473.066 833.103 472.605C834.557 472.164 835.638 471.208 836.345 469.735C837.072 468.221 837.153 466.758 836.587 465.348C836.084 463.916 835.055 462.826 833.498 462.079ZM838.598 507.468L859.805 463.295L870.659 468.506L849.452 512.679L838.598 507.468ZM883.82 517.609C885.965 518.639 888.165 519.125 890.418 519.068C892.714 519.031 895.032 518.462 897.373 517.36L901.141 527.788C897.847 529.364 894.144 530.123 890.031 530.064C885.96 530.025 882.158 529.157 878.624 527.461C875.301 525.865 872.449 523.771 870.07 521.179C867.733 518.608 865.997 515.808 864.863 512.778C863.729 509.749 863.219 506.553 863.332 503.191C863.445 499.829 864.269 496.549 865.804 493.352C867.339 490.154 869.383 487.46 871.936 485.269C874.509 483.036 877.332 481.415 880.405 480.406C883.52 479.417 886.812 479.03 890.28 479.245C893.748 479.461 897.144 480.367 900.468 481.962C902.277 482.831 903.985 483.91 905.592 485.199C907.199 486.488 908.641 487.905 909.918 489.45C911.215 490.953 912.296 492.585 913.159 494.345C914.042 496.063 914.675 497.817 915.059 499.606L904.285 503.285C903.658 500.603 902.609 498.313 901.138 496.416C899.73 494.498 897.911 493.003 895.681 491.933C893.914 491.085 892.091 490.623 890.211 490.549C888.393 490.453 886.644 490.7 884.963 491.291C883.324 491.902 881.784 492.845 880.343 494.12C878.965 495.374 877.841 496.905 876.973 498.714C876.105 500.523 875.612 502.357 875.496 504.217C875.442 506.054 875.71 507.814 876.301 509.495C876.933 511.197 877.866 512.757 879.1 514.178C880.395 515.576 881.969 516.72 883.82 517.609ZM902.147 529.669L911.992 524.689C913.612 528.107 915.347 530.855 917.196 532.934C919.045 535.012 921.232 536.657 923.756 537.869C926.238 539.061 928.355 539.611 930.107 539.521C931.901 539.45 933.121 538.742 933.768 537.395C934.353 536.175 934.324 534.997 933.679 533.859C933.077 532.741 931.773 531.468 929.767 530.039L920.867 523.67C917.594 521.322 915.495 518.632 914.57 515.599C913.644 512.567 913.959 509.431 915.515 506.192C917.554 501.942 920.759 499.365 925.128 498.46C929.559 497.534 934.593 498.423 940.23 501.13C943.511 502.705 946.541 504.859 949.319 507.59C952.14 510.342 954.284 513.261 955.753 516.347L946.163 521.605C944.718 518.685 943.082 516.269 941.256 514.357C939.473 512.465 937.424 510.964 935.11 509.853C932.922 508.803 931.005 508.322 929.357 508.411C927.772 508.479 926.697 509.101 926.131 510.279C925.606 511.373 925.592 512.427 926.088 513.442C926.647 514.435 927.781 515.523 929.491 516.706L937.914 522.614C941.839 525.327 944.381 528.281 945.539 531.477C946.738 534.693 946.52 538.005 944.884 541.412C942.743 545.872 939.301 548.567 934.557 549.499C929.855 550.451 924.517 549.493 918.543 546.625C915.009 544.929 911.788 542.58 908.881 539.579C906.015 536.599 903.77 533.295 902.147 529.669Z" fill="#F8F8F8"/>
<path d="M717.902 406.97L716.099 406.104L715.233 407.907L717.036 408.773L717.902 406.97ZM722.507 397.378L723.372 395.575L721.569 394.71L720.704 396.512L722.507 397.378ZM762.262 416.465L764.065 417.33L764.931 415.527L763.128 414.662L762.262 416.465ZM757.657 426.056L756.792 427.859L758.595 428.725L759.46 426.922L757.657 426.056ZM743.207 419.119L744.072 417.316L742.269 416.45L741.404 418.253L743.207 419.119ZM726.604 453.7L725.739 455.503L727.542 456.368L728.407 454.565L726.604 453.7ZM715.75 448.489L713.947 447.623L713.082 449.426L714.885 450.292L715.75 448.489ZM732.353 413.908L734.156 414.773L735.021 412.97L733.218 412.105L732.353 413.908ZM719.705 407.836L724.31 398.244L720.704 396.512L716.099 406.104L719.705 407.836ZM721.641 399.181L761.397 418.268L763.128 414.662L723.372 395.575L721.641 399.181ZM760.46 415.599L755.854 425.191L759.46 426.922L764.065 417.33L760.46 415.599ZM758.523 424.254L744.072 417.316L742.341 420.922L756.792 427.859L758.523 424.254ZM741.404 418.253L724.801 452.834L728.407 454.565L745.01 419.984L741.404 418.253ZM727.47 451.897L716.616 446.686L714.885 450.292L725.739 455.503L727.47 451.897ZM717.553 449.354L734.156 414.773L730.55 413.042L713.947 447.623L717.553 449.354ZM733.218 412.105L718.767 405.167L717.036 408.773L731.487 415.711L733.218 412.105ZM793.421 469.627L794.724 471.145L794.732 471.138L793.421 469.627ZM784.952 474.491L785.576 476.391L785.586 476.388L785.596 476.385L784.952 474.491ZM775.14 475.682L775.264 473.686L775.264 473.686L775.14 475.682ZM756.588 466.775L758.068 465.429L758.068 465.429L756.588 466.775ZM751.381 458.373L749.5 459.055L749.504 459.065L749.508 459.075L751.381 458.373ZM749.879 448.723L747.881 448.645L747.881 448.656L749.879 448.723ZM758.453 430.865L759.756 432.382L759.764 432.375L758.453 430.865ZM766.923 426.001L767.547 427.901L767.557 427.898L767.566 427.895L766.923 426.001ZM800.494 442.119L798.614 442.8L798.617 442.81L798.621 442.82L800.494 442.119ZM801.995 451.769L799.997 451.691L799.996 451.702L801.995 451.769ZM789.861 450.68L787.866 450.537L787.866 450.546L787.865 450.555L789.861 450.68ZM789.18 445.306L787.281 445.933L787.287 445.951L787.293 445.969L789.18 445.306ZM786.54 440.777L785.017 442.073L785.032 442.091L785.048 442.108L786.54 440.777ZM776.696 436.051L776.59 438.048L776.614 438.049L776.637 438.05L776.696 436.051ZM771.448 436.793L770.785 434.906L770.767 434.912L770.749 434.918L771.448 436.793ZM766.891 439.652L768.237 441.132L768.244 441.126L768.25 441.119L766.891 439.652ZM762.014 449.812L760.019 449.669L760.018 449.678L760.017 449.687L762.014 449.812ZM762.662 455.093L760.763 455.72L760.769 455.738L760.775 455.756L762.662 455.093ZM765.335 459.715L763.811 461.011L763.827 461.029L763.842 461.046L765.335 459.715ZM775.179 464.441L775.073 466.438L775.097 466.44L775.12 466.44L775.179 464.441ZM780.394 463.606L779.731 461.719L779.714 461.725L779.696 461.732L780.394 463.606ZM784.983 460.84L786.329 462.319L786.336 462.313L786.343 462.307L784.983 460.84ZM797.75 460.68C796.351 463.595 794.472 466.068 792.111 468.117L794.732 471.138C797.518 468.721 799.727 465.805 801.356 462.411L797.75 460.68ZM792.119 468.11C789.754 470.139 787.153 471.63 784.308 472.597L785.596 476.385C788.938 475.248 791.983 473.497 794.724 471.145L792.119 468.11ZM784.328 472.591C781.514 473.515 778.498 473.887 775.264 473.686L775.016 477.678C778.719 477.908 782.245 477.485 785.576 476.391L784.328 472.591ZM775.264 473.686C772.065 473.487 768.941 472.661 765.881 471.192L764.15 474.798C767.653 476.48 771.278 477.445 775.016 477.678L775.264 473.686ZM765.881 471.192C762.821 469.723 760.223 467.801 758.068 465.429L755.108 468.12C757.626 470.891 760.647 473.116 764.15 474.798L765.881 471.192ZM758.068 465.429C755.888 463.032 754.292 460.447 753.254 457.672L749.508 459.075C750.737 462.359 752.612 465.375 755.108 468.12L758.068 465.429ZM753.261 457.692C752.237 454.867 751.774 451.905 751.878 448.79L747.881 448.656C747.759 452.265 748.297 455.737 749.5 459.055L753.261 457.692ZM751.878 448.801C752 445.677 752.755 442.665 754.154 439.749L750.549 438.018C748.919 441.413 748.025 444.96 747.881 448.645L751.878 448.801ZM754.154 439.749C755.554 436.833 757.421 434.386 759.756 432.382L757.151 429.347C754.379 431.725 752.178 434.623 750.549 438.018L754.154 439.749ZM759.764 432.375C762.147 430.307 764.74 428.823 767.547 427.901L766.298 424.101C762.96 425.198 759.906 426.956 757.142 429.354L759.764 432.375ZM767.566 427.895C770.397 426.932 773.416 426.543 776.641 426.743L776.889 422.751C773.177 422.52 769.634 422.967 766.279 424.107L767.566 427.895ZM776.641 426.743C779.84 426.942 782.964 427.768 786.024 429.237L787.755 425.631C784.252 423.949 780.627 422.983 776.889 422.751L776.641 426.743ZM786.024 429.237C789.084 430.706 791.682 432.628 793.837 434.999L796.797 432.309C794.279 429.538 791.258 427.312 787.755 425.631L786.024 429.237ZM793.837 434.999C796.011 437.391 797.594 439.989 798.614 442.8L802.374 441.437C801.166 438.105 799.299 435.061 796.797 432.309L793.837 434.999ZM798.621 442.82C799.657 445.587 800.12 448.537 799.997 451.691L803.994 451.847C804.137 448.192 803.599 444.709 802.367 441.417L798.621 442.82ZM799.996 451.702C799.893 454.776 799.15 457.764 797.75 460.68L801.356 462.411C802.986 459.016 803.871 455.486 803.994 451.836L799.996 451.702ZM790.187 457.048C791.158 455.025 791.724 452.941 791.857 450.805L787.865 450.555C787.766 452.138 787.347 453.722 786.581 455.317L790.187 457.048ZM791.856 450.823C792.011 448.668 791.755 446.6 791.067 444.643L787.293 445.969C787.787 447.374 787.985 448.889 787.866 450.537L791.856 450.823ZM791.079 444.679C790.441 442.747 789.419 441 788.032 439.446L785.048 442.108C786.084 443.271 786.822 444.543 787.281 445.933L791.079 444.679ZM788.063 439.481C786.679 437.854 784.97 436.563 782.968 435.601L781.237 439.207C782.769 439.943 784.019 440.9 785.017 442.073L788.063 439.481ZM782.968 435.601C780.966 434.64 778.89 434.114 776.754 434.052L776.637 438.05C778.177 438.095 779.705 438.472 781.237 439.207L782.968 435.601ZM776.801 434.054C774.729 433.944 772.718 434.227 770.785 434.906L772.111 438.68C773.54 438.177 775.028 437.965 776.59 438.048L776.801 434.054ZM770.749 434.918C768.844 435.628 767.105 436.728 765.532 438.185L768.25 441.119C769.475 439.985 770.773 439.178 772.146 438.667L770.749 434.918ZM765.546 438.173C763.962 439.613 762.689 441.357 761.718 443.38L765.324 445.112C766.09 443.517 767.063 442.199 768.237 441.132L765.546 438.173ZM761.718 443.38C760.746 445.404 760.174 447.503 760.019 449.669L764.008 449.955C764.126 448.317 764.558 446.706 765.324 445.112L761.718 443.38ZM760.017 449.687C759.886 451.784 760.129 453.801 760.763 455.72L764.561 454.466C764.098 453.062 763.908 451.559 764.01 449.937L760.017 449.687ZM760.775 455.756C761.449 457.676 762.466 459.43 763.811 461.011L766.858 458.419C765.821 457.2 765.055 455.872 764.549 454.43L760.775 455.756ZM763.842 461.046C765.243 462.616 766.95 463.874 768.937 464.828L770.668 461.222C769.121 460.479 767.85 459.53 766.827 458.384L763.842 461.046ZM768.937 464.828C770.923 465.781 772.972 466.327 775.073 466.438L775.285 462.444C773.75 462.363 772.215 461.965 770.668 461.222L768.937 464.828ZM775.12 466.44C777.203 466.501 779.199 466.186 781.092 465.48L779.696 461.732C778.311 462.248 776.831 462.489 775.238 462.442L775.12 466.44ZM781.057 465.493C783.002 464.81 784.762 463.745 786.329 462.319L783.638 459.36C782.448 460.442 781.148 461.221 779.731 461.719L781.057 465.493ZM786.343 462.307C787.935 460.832 789.216 459.072 790.187 457.048L786.581 455.317C785.816 456.912 784.829 458.257 783.624 459.373L786.343 462.307ZM794.721 486.402L792.918 485.537L792.052 487.34L793.855 488.205L794.721 486.402ZM815.928 442.229L816.794 440.426L814.991 439.561L814.125 441.364L815.928 442.229ZM844.694 457.36L843.236 458.729L843.236 458.729L844.694 457.36ZM847.972 462.661L846.085 463.324L846.096 463.354L846.108 463.384L847.972 462.661ZM848.946 468.719L846.948 468.634L846.947 468.642L846.947 468.651L848.946 468.719ZM838.247 482.917L838.816 484.834L838.833 484.83L838.849 484.825L838.247 482.917ZM832.058 483.518L832.215 481.524L832.207 481.523L832.2 481.523L832.058 483.518ZM813.179 475.774L814.045 473.971L812.242 473.106L811.376 474.909L813.179 475.774ZM805.575 491.613L804.709 493.416L806.512 494.282L807.378 492.479L805.575 491.613ZM822.329 456.717L823.194 454.914L821.391 454.048L820.526 455.851L822.329 456.717ZM817.481 466.813L815.678 465.948L814.813 467.751L816.616 468.616L817.481 466.813ZM833.103 472.605L832.523 470.691L832.503 470.697L832.483 470.704L833.103 472.605ZM836.587 465.348L834.701 466.011L834.715 466.052L834.731 466.092L836.587 465.348ZM796.524 487.268L817.731 443.095L814.125 441.364L792.918 485.537L796.524 487.268ZM815.063 444.032L838.348 455.212L840.079 451.606L816.794 440.426L815.063 444.032ZM838.348 455.212C840.29 456.144 841.911 457.319 843.236 458.729L846.151 455.99C844.461 454.192 842.429 452.734 840.079 451.606L838.348 455.212ZM843.236 458.729C844.568 460.146 845.506 461.676 846.085 463.324L849.859 461.998C849.082 459.785 847.835 457.781 846.151 455.99L843.236 458.729ZM846.108 463.384C846.744 465.024 847.028 466.767 846.948 468.634L850.944 468.804C851.047 466.41 850.681 464.114 849.837 461.937L846.108 463.384ZM846.947 468.651C846.887 470.438 846.434 472.243 845.552 474.078L849.158 475.809C850.256 473.522 850.864 471.177 850.945 468.787L846.947 468.651ZM845.552 474.078C844.717 475.819 843.615 477.262 842.25 478.434L844.856 481.469C846.662 479.918 848.095 478.024 849.158 475.809L845.552 474.078ZM842.25 478.434C840.866 479.623 839.334 480.477 837.645 481.01L838.849 484.825C841.064 484.126 843.07 483.003 844.856 481.469L842.25 478.434ZM837.678 481C836.002 481.498 834.187 481.68 832.215 481.524L831.9 485.511C834.317 485.702 836.628 485.484 838.816 484.834L837.678 481ZM832.2 481.523C830.323 481.389 828.418 480.872 826.476 479.939L824.745 483.545C827.094 484.673 829.487 485.34 831.915 485.512L832.2 481.523ZM826.476 479.939L814.045 473.971L812.314 477.577L824.745 483.545L826.476 479.939ZM811.376 474.909L803.772 490.748L807.378 492.479L814.982 476.64L811.376 474.909ZM806.44 489.81L795.587 484.599L793.855 488.205L804.709 493.416L806.44 489.81ZM834.364 460.276L823.194 454.914L821.463 458.52L832.632 463.882L834.364 460.276ZM820.526 455.851L815.678 465.948L819.284 467.679L824.132 457.582L820.526 455.851ZM816.616 468.616L827.785 473.979L829.516 470.373L818.347 465.01L816.616 468.616ZM827.785 473.979C829.725 474.91 831.743 475.153 833.724 474.506L832.483 470.704C831.64 470.979 830.69 470.936 829.516 470.373L827.785 473.979ZM833.684 474.519C835.718 473.903 837.219 472.536 838.148 470.601L834.542 468.87C834.057 469.879 833.397 470.426 832.523 470.691L833.684 474.519ZM838.148 470.601C839.089 468.641 839.241 466.593 838.444 464.604L834.731 466.092C835.064 466.924 835.055 467.801 834.542 468.87L838.148 470.601ZM838.474 464.685C837.771 462.683 836.327 461.219 834.364 460.276L832.632 463.882C833.782 464.434 834.398 465.15 834.701 466.011L838.474 464.685ZM838.598 507.468L836.795 506.602L835.929 508.405L837.732 509.271L838.598 507.468ZM859.805 463.295L860.671 461.492L858.868 460.626L858.002 462.429L859.805 463.295ZM870.659 468.506L872.462 469.371L873.328 467.568L871.525 466.703L870.659 468.506ZM849.452 512.679L848.586 514.482L850.389 515.347L851.255 513.544L849.452 512.679ZM840.401 508.333L861.608 464.16L858.002 462.429L836.795 506.602L840.401 508.333ZM858.94 465.098L869.794 470.309L871.525 466.703L860.671 461.492L858.94 465.098ZM868.856 467.64L847.649 511.813L851.255 513.544L872.462 469.371L868.856 467.64ZM850.318 510.876L839.464 505.665L837.732 509.271L848.586 514.482L850.318 510.876ZM890.418 519.068L890.386 517.069L890.377 517.069L890.368 517.069L890.418 519.068ZM897.373 517.36L899.254 516.68L898.507 514.615L896.521 515.55L897.373 517.36ZM901.141 527.788L902.004 529.592L903.637 528.81L903.022 527.108L901.141 527.788ZM890.031 530.064L890.06 528.064L890.05 528.064L890.031 530.064ZM870.07 521.179L868.59 522.525L868.597 522.532L870.07 521.179ZM864.863 512.778L862.99 513.479L862.99 513.479L864.863 512.778ZM863.332 503.191L861.333 503.124L861.333 503.124L863.332 503.191ZM871.936 485.269L873.238 486.787L873.246 486.78L871.936 485.269ZM880.405 480.406L879.8 478.5L879.79 478.503L879.781 478.506L880.405 480.406ZM909.918 489.45L908.376 490.724L908.39 490.741L908.404 490.757L909.918 489.45ZM913.159 494.345L911.363 495.225L911.371 495.242L911.38 495.259L913.159 494.345ZM915.059 499.606L915.705 501.498L917.387 500.924L917.015 499.186L915.059 499.606ZM904.285 503.285L902.338 503.741L902.841 505.892L904.932 505.178L904.285 503.285ZM901.138 496.416L899.526 497.6L899.541 497.621L899.557 497.642L901.138 496.416ZM890.211 490.549L890.105 492.546L890.119 492.547L890.132 492.548L890.211 490.549ZM884.963 491.291L884.3 489.404L884.282 489.41L884.265 489.417L884.963 491.291ZM880.343 494.12L879.017 492.623L879.007 492.632L878.998 492.641L880.343 494.12ZM875.496 504.217L873.5 504.092L873.498 504.125L873.497 504.158L875.496 504.217ZM876.301 509.495L874.414 510.158L874.42 510.175L874.426 510.192L876.301 509.495ZM879.1 514.178L877.59 515.489L877.611 515.513L877.633 515.537L879.1 514.178ZM882.954 519.412C885.369 520.571 887.881 521.133 890.469 521.068L890.368 517.069C888.449 517.117 886.562 516.707 884.685 515.806L882.954 519.412ZM890.45 521.068C893.063 521.026 895.66 520.377 898.225 519.169L896.521 515.55C894.404 516.547 892.364 517.037 890.386 517.069L890.45 521.068ZM895.492 518.04L899.26 528.468L903.022 527.108L899.254 516.68L895.492 518.04ZM900.277 525.984C897.295 527.411 893.904 528.119 890.06 528.064L890.002 532.064C894.384 532.127 898.399 531.318 902.004 529.592L900.277 525.984ZM890.05 528.064C886.261 528.028 882.749 527.222 879.49 525.658L877.759 529.263C881.567 531.092 885.66 532.022 890.012 532.064L890.05 528.064ZM879.49 525.658C876.384 524.167 873.742 522.222 871.543 519.827L868.597 522.532C871.156 525.32 874.217 527.563 877.759 529.263L879.49 525.658ZM871.55 519.834C869.371 517.436 867.775 514.851 866.736 512.077L862.99 513.479C864.219 516.764 866.095 519.779 868.59 522.525L871.55 519.834ZM866.736 512.077C865.698 509.303 865.226 506.369 865.33 503.258L861.333 503.124C861.211 506.737 861.76 510.195 862.99 513.479L866.736 512.077ZM865.33 503.258C865.434 500.188 866.185 497.179 867.607 494.217L864.001 492.486C862.352 495.919 861.455 499.47 861.333 503.124L865.33 503.258ZM867.607 494.217C869.028 491.256 870.907 488.788 873.238 486.787L870.633 483.752C867.859 486.133 865.649 489.053 864.001 492.486L867.607 494.217ZM873.246 486.78C875.63 484.712 878.222 483.228 881.029 482.306L879.781 478.506C876.442 479.603 873.388 481.361 870.625 483.759L873.246 486.78ZM881.01 482.312C883.875 481.402 886.918 481.04 890.156 481.242L890.404 477.249C886.705 477.019 883.165 477.431 879.8 478.5L881.01 482.312ZM890.156 481.242C893.351 481.44 896.497 482.274 899.602 483.765L901.333 480.159C897.792 478.459 894.145 477.482 890.404 477.249L890.156 481.242ZM899.602 483.765C901.27 484.566 902.849 485.563 904.34 486.759L906.843 483.639C905.12 482.257 903.283 481.096 901.333 480.159L899.602 483.765ZM904.34 486.759C905.844 487.965 907.188 489.287 908.376 490.724L911.459 488.176C910.093 486.523 908.553 485.011 906.843 483.639L904.34 486.759ZM908.404 490.757C909.591 492.132 910.576 493.621 911.363 495.225L914.954 493.464C914.015 491.548 912.84 489.774 911.432 488.143L908.404 490.757ZM911.38 495.259C912.187 496.83 912.759 498.417 913.103 500.025L917.015 499.186C916.592 497.216 915.897 495.296 914.937 493.43L911.38 495.259ZM914.413 497.713L903.639 501.392L904.932 505.178L915.705 501.498L914.413 497.713ZM906.233 502.83C905.549 499.908 904.39 497.346 902.719 495.191L899.557 497.642C900.828 499.28 901.766 501.297 902.338 503.741L906.233 502.83ZM902.75 495.233C901.14 493.039 899.06 491.337 896.546 490.13L894.815 493.736C896.761 494.67 898.319 495.956 899.526 497.6L902.75 495.233ZM896.546 490.13C894.544 489.168 892.454 488.636 890.29 488.551L890.132 492.548C891.727 492.611 893.284 493.001 894.815 493.736L896.546 490.13ZM890.316 488.552C888.244 488.442 886.233 488.725 884.3 489.404L885.626 493.178C887.055 492.676 888.543 492.464 890.105 492.546L890.316 488.552ZM884.265 489.417C882.373 490.122 880.624 491.2 879.017 492.623L881.669 495.618C882.944 494.489 884.275 493.682 885.661 493.165L884.265 489.417ZM878.998 492.641C877.414 494.08 876.141 495.825 875.17 497.848L878.776 499.58C879.542 497.985 880.515 496.667 881.689 495.6L878.998 492.641ZM875.17 497.848C874.199 499.872 873.633 501.956 873.5 504.092L877.492 504.342C877.591 502.758 878.01 501.174 878.776 499.58L875.17 497.848ZM873.497 504.158C873.436 506.233 873.739 508.238 874.414 510.158L878.188 508.832C877.681 507.39 877.448 505.876 877.495 504.276L873.497 504.158ZM874.426 510.192C875.145 512.127 876.205 513.894 877.59 515.489L880.61 512.867C879.528 511.621 878.721 510.266 878.175 508.798L874.426 510.192ZM877.633 515.537C879.112 517.134 880.894 518.423 882.954 519.412L884.685 515.806C883.043 515.017 881.679 514.019 880.567 512.819L877.633 515.537ZM902.147 529.669L901.244 527.884L899.542 528.745L900.321 530.486L902.147 529.669ZM911.992 524.689L913.799 523.832L912.92 521.978L911.089 522.904L911.992 524.689ZM917.196 532.934L915.702 534.263L917.196 532.934ZM930.107 539.521L930.029 537.522L930.016 537.523L930.004 537.523L930.107 539.521ZM933.679 533.859L931.919 534.808L931.929 534.826L931.939 534.845L933.679 533.859ZM929.767 530.039L928.603 531.666L928.607 531.668L929.767 530.039ZM920.867 523.67L919.701 525.295L919.703 525.296L920.867 523.67ZM914.57 515.599L912.657 516.183L912.657 516.183L914.57 515.599ZM925.128 498.46L925.533 500.419L925.537 500.418L925.128 498.46ZM949.319 507.59L947.917 509.016L947.923 509.022L949.319 507.59ZM955.753 516.347L956.714 518.101L958.371 517.193L957.559 515.488L955.753 516.347ZM946.163 521.605L944.371 522.492L945.296 524.361L947.124 523.358L946.163 521.605ZM941.256 514.357L939.801 515.729L939.81 515.738L941.256 514.357ZM929.357 508.411L929.442 510.41L929.454 510.409L929.465 510.409L929.357 508.411ZM926.088 513.442L924.291 514.321L924.317 514.373L924.345 514.423L926.088 513.442ZM929.491 516.706L930.639 515.069L930.629 515.062L929.491 516.706ZM937.914 522.614L936.765 524.251L936.777 524.259L937.914 522.614ZM945.539 531.477L943.658 532.158L943.661 532.167L943.665 532.176L945.539 531.477ZM934.557 549.499L934.171 547.537L934.16 547.539L934.557 549.499ZM908.881 539.579L907.439 540.966L907.444 540.971L908.881 539.579ZM903.049 531.453L912.894 526.474L911.089 522.904L901.244 527.884L903.049 531.453ZM910.185 525.546C911.859 529.078 913.69 532.002 915.702 534.263L918.69 531.604C917.003 529.708 915.365 527.136 913.799 523.832L910.185 525.546ZM915.702 534.263C917.728 536.541 920.129 538.346 922.891 539.672L924.622 536.066C922.335 534.968 920.362 533.483 918.69 531.604L915.702 534.263ZM922.891 539.672C925.519 540.934 927.987 541.633 930.211 541.518L930.004 537.523C928.724 537.589 926.958 537.188 924.622 536.066L922.891 539.672ZM930.186 541.519C932.54 541.426 934.533 540.423 935.571 538.261L931.965 536.53C931.71 537.06 931.262 537.474 930.029 537.522L930.186 541.519ZM935.571 538.261C936.428 536.475 936.4 534.604 935.42 532.873L931.939 534.845C932.248 535.389 932.279 535.875 931.965 536.53L935.571 538.261ZM935.44 532.91C934.611 531.372 932.991 529.88 930.928 528.41L928.607 531.668C930.555 533.056 931.543 534.11 931.919 534.808L935.44 532.91ZM930.931 528.413L922.031 522.044L919.703 525.296L928.603 531.666L930.931 528.413ZM922.033 522.045C919.019 519.883 917.249 517.527 916.483 515.016L912.657 516.183C913.741 519.737 916.169 522.761 919.701 525.295L922.033 522.045ZM916.483 515.016C915.723 512.528 915.948 509.909 917.318 507.057L913.712 505.326C911.97 508.953 911.565 512.606 912.657 516.183L916.483 515.016ZM917.318 507.057C919.105 503.333 921.814 501.189 925.533 500.419L924.722 496.502C919.703 497.542 916.004 500.552 913.712 505.326L917.318 507.057ZM925.537 500.418C929.4 499.61 933.975 500.345 939.364 502.933L941.096 499.327C935.21 496.501 929.717 495.457 924.718 496.503L925.537 500.418ZM939.364 502.933C942.434 504.406 945.285 506.428 947.917 509.016L950.722 506.164C947.798 503.289 944.589 501.004 941.096 499.327L939.364 502.933ZM947.923 509.022C950.599 511.633 952.594 514.364 953.947 517.207L957.559 515.488C955.974 512.158 953.68 509.05 950.716 506.159L947.923 509.022ZM954.792 514.593L945.202 519.851L947.124 523.358L956.714 518.101L954.792 514.593ZM947.955 520.717C946.44 517.657 944.696 515.063 942.703 512.976L939.81 515.738C941.468 517.475 942.995 519.713 944.371 522.492L947.955 520.717ZM942.711 512.985C940.762 510.917 938.514 509.269 935.976 508.05L934.244 511.656C936.334 512.659 938.184 514.014 939.801 515.729L942.711 512.985ZM935.976 508.05C933.618 506.918 931.354 506.301 929.249 506.414L929.465 510.409C930.656 510.344 932.227 510.688 934.244 511.656L935.976 508.05ZM929.273 506.413C927.138 506.504 925.288 507.415 924.328 509.414L927.934 511.145C928.106 510.787 928.406 510.454 929.442 510.41L929.273 506.413ZM924.328 509.414C923.561 511.012 923.504 512.711 924.291 514.321L927.885 512.563C927.679 512.144 927.651 511.734 927.934 511.145L924.328 509.414ZM924.345 514.423C925.129 515.817 926.566 517.115 928.352 518.351L930.629 515.062C928.995 513.931 928.164 513.053 927.831 512.461L924.345 514.423ZM928.342 518.344L936.765 524.251L939.062 520.976L930.639 515.069L928.342 518.344ZM936.777 524.259C940.494 526.828 942.689 529.482 943.658 532.158L947.419 530.796C946.073 527.08 943.185 523.825 939.051 520.968L936.777 524.259ZM943.665 532.176C944.654 534.828 944.508 537.574 943.081 540.547L946.687 542.278C948.532 538.435 948.822 534.558 947.413 530.778L943.665 532.176ZM943.081 540.547C941.206 544.453 938.279 546.73 934.171 547.537L934.942 551.462C940.322 550.405 944.281 547.291 946.687 542.278L943.081 540.547ZM934.16 547.539C930.021 548.377 925.137 547.573 919.409 544.822L917.677 548.428C923.897 551.414 929.689 552.526 934.954 551.459L934.16 547.539ZM919.409 544.822C916.101 543.235 913.071 541.03 910.317 538.188L907.444 540.971C910.506 544.13 913.917 546.623 917.677 548.428L919.409 544.822ZM910.322 538.193C907.61 535.372 905.498 532.259 903.972 528.851L900.321 530.486C902.043 534.331 904.42 537.826 907.439 540.966L910.322 538.193Z" fill="#0F1B35"/>
</svg>
