<svg width="1108" height="769" viewBox="0 0 1108 769" fill="none" xmlns="http://www.w3.org/2000/svg">
<path d="M553.356 295.738C579.254 286.756 608.017 296.891 622.781 319.385L750.086 275.232C759.449 271.985 769.518 272.578 778.436 276.902L1023.86 395.928C1038.54 403.048 1044.69 420.784 1037.57 435.464L926.078 665.361C922.518 672.701 916.303 677.909 909.145 680.392C901.986 682.875 893.882 682.633 886.541 679.073L641.117 560.048C632.199 555.722 625.499 548.184 622.252 538.82L582.194 423.322C575.743 422.405 569.431 420.93 563.397 418.803C540.669 410.79 524.467 394.481 516.546 371.64C505.768 340.565 522.281 306.516 553.356 295.738ZM635.565 534.204C637.579 540.012 641.734 544.687 647.266 547.37L892.691 666.395C900.381 670.125 909.671 666.903 913.4 659.213L1024.89 429.316C1028.62 421.626 1025.4 412.336 1017.71 408.606L772.287 289.581C766.755 286.898 760.511 286.53 754.703 288.545L586.948 346.726C578.874 349.526 574.583 358.374 577.383 366.449L592.55 410.179C605.82 410.934 619.565 409.252 632.198 405.977C628.474 388.013 638.58 369.583 656.368 363.414C675.698 356.71 696.879 366.982 703.583 386.312C710.287 405.642 700.014 426.823 680.685 433.527C664.429 439.164 646.869 432.795 637.706 419.131C624.965 422.624 611.162 424.636 597.508 424.474L635.565 534.204ZM672.264 404.443C666.335 408.153 659.456 411.539 651.962 414.437C657.999 420.682 667.337 423.243 676.069 420.215C688.058 416.056 694.429 402.919 690.271 390.93C686.113 378.94 672.976 372.569 660.986 376.727C650.422 380.391 644.224 391.027 645.743 401.705C652.855 399.044 659.333 395.913 664.79 392.498C668.086 390.433 672.435 391.434 674.499 394.733C676.563 398.031 675.562 402.378 672.264 404.443ZM568.083 405.514C570.941 406.521 573.886 407.354 576.892 408.034L564.071 371.066C558.724 355.651 566.916 338.76 582.331 333.414L608.924 324.19C597.175 309.069 576.603 302.59 557.973 309.051C534.239 317.283 521.627 343.289 529.858 367.023C536.417 385.934 549.278 398.884 568.083 405.514Z" fill="#F8F8F8"/>
<path d="M207.68 124.224C188.288 132.011 167.424 137.707 146.197 137.707C85.504 102.272 3.136 139.2 3.136 216.811H3.15733C3.15733 245.739 21.4187 285.397 49.9627 295.104V296.256C28.7573 305.749 22.8907 354.091 51.0933 371.456V372.608C20.288 382.869 0 402.645 0 436.8C0 495.659 55.04 512 103.232 512C161.92 512 205.568 490.624 205.568 425.131C205.568 344.555 91.6267 374.272 91.6267 330.496C91.6267 315.072 99.7547 309.12 113.835 306.155C160.64 297.344 189.995 260.437 189.995 212.203C189.995 203.861 188.309 195.968 185.472 188.203C193.024 186.496 200.363 184.427 207.68 181.909V124.224ZM102.101 404.032V404.011C121.28 404.011 148.587 407.445 148.587 432.576C148.587 457.493 126.592 462.635 106.048 462.635C86.528 462.635 57.1947 459.541 57.1947 433.835C57.3013 408.384 82.112 404.032 102.101 404.032V404.032ZM98.496 256.043V256.021C73.6853 256.021 63.1893 241.173 63.1893 217.408C63.1893 161.067 132.011 161.643 132.011 216.853C131.989 240.043 122.965 256.043 98.496 256.043Z" fill="#F8F8F8"/>
<path d="M469.333 368.576V312.576C460.309 318.869 447.339 322.069 436.288 322.069C415.424 322.069 411.691 301.483 411.691 284.565V180.459C447.467 180.459 469.248 181.611 469.248 181.611V127.296H411.691C411.691 111.637 411.115 96 413.376 80.2134H349.397C351.424 91.8614 351.083 101.824 351.083 127.296H324.011V181.589C342.848 178.624 343.189 180.437 351.083 180.437V181.589H350.528V281.813C350.528 331.52 357.632 379.755 417.984 379.755C434.923 379.776 454.336 376.917 469.333 368.576V368.576Z" fill="#F8F8F8"/>
<path d="M266.496 0C243.947 0 227.584 19.8613 227.584 41.9413C227.584 63.6587 244.16 83.328 266.496 83.328C288.256 83.328 304.619 63.3387 304.619 41.9413C304.619 20.5867 288.811 0 266.496 0V0Z" fill="#F8F8F8"/>
<path d="M235.008 127.083C237.034 143.979 236.821 355.328 235.008 376H297.642C295.829 355.456 295.616 143.765 297.642 127.083H235.008Z" fill="#F8F8F8"/>
<path d="M717.902 406.97L722.507 397.378L762.262 416.465L757.657 426.056L743.207 419.119L726.604 453.7L715.75 448.489L732.353 413.908L717.902 406.97ZM799.553 461.545C798.039 464.7 795.995 467.394 793.421 469.627C790.868 471.818 788.045 473.439 784.952 474.491C781.879 475.5 778.609 475.897 775.14 475.682C771.672 475.466 768.297 474.57 765.016 472.995C761.734 471.42 758.925 469.346 756.588 466.775C754.25 464.203 752.515 461.403 751.381 458.373C750.267 455.302 749.766 452.085 749.879 448.723C750.013 445.319 750.837 442.039 752.352 438.884C753.866 435.728 755.9 433.055 758.453 430.865C761.027 428.632 763.85 427.01 766.923 426.001C770.016 424.949 773.296 424.532 776.765 424.747C780.233 424.963 783.608 425.858 786.889 427.434C790.171 429.009 792.98 431.083 795.317 433.654C797.655 436.226 799.38 439.047 800.494 442.119C801.628 445.148 802.128 448.365 801.995 451.769C801.882 455.131 801.068 458.39 799.553 461.545ZM788.384 456.183C789.253 454.374 789.745 452.54 789.861 450.68C789.998 448.778 789.771 446.987 789.18 445.306C788.632 443.645 787.752 442.135 786.54 440.777C785.349 439.377 783.87 438.253 782.103 437.404C780.336 436.556 778.533 436.105 776.696 436.051C774.878 435.955 773.129 436.202 771.448 436.793C769.809 437.403 768.29 438.357 766.891 439.652C765.513 440.906 764.389 442.437 763.521 444.246C762.652 446.055 762.15 447.91 762.014 449.812C761.897 451.672 762.113 453.432 762.662 455.093C763.252 456.774 764.143 458.315 765.335 459.715C766.546 461.073 768.035 462.176 769.802 463.025C771.569 463.873 773.361 464.345 775.179 464.441C777.017 464.495 778.755 464.217 780.394 463.606C782.075 463.015 783.605 462.093 784.983 460.84C786.382 459.544 787.516 457.992 788.384 456.183ZM794.721 486.402L815.928 442.229L839.214 453.409C841.359 454.439 843.186 455.756 844.694 457.36C846.201 458.963 847.294 460.731 847.972 462.661C848.712 464.569 849.037 466.589 848.946 468.719C848.875 470.807 848.345 472.882 847.355 474.944C846.406 476.921 845.139 478.59 843.553 479.952C841.968 481.313 840.199 482.301 838.247 482.917C836.315 483.491 834.252 483.691 832.058 483.518C829.905 483.364 827.756 482.773 825.611 481.742L813.179 475.774L805.575 491.613L794.721 486.402ZM833.498 462.079L822.329 456.717L817.481 466.813L828.651 472.176C830.207 472.923 831.691 473.066 833.103 472.605C834.557 472.164 835.638 471.208 836.345 469.735C837.072 468.221 837.153 466.758 836.587 465.348C836.084 463.916 835.055 462.826 833.498 462.079ZM838.598 507.468L859.805 463.295L870.659 468.506L849.452 512.679L838.598 507.468ZM883.82 517.609C885.965 518.639 888.165 519.125 890.418 519.068C892.714 519.031 895.032 518.462 897.373 517.36L901.141 527.788C897.847 529.364 894.144 530.123 890.031 530.064C885.96 530.025 882.158 529.157 878.624 527.461C875.301 525.865 872.449 523.771 870.07 521.179C867.733 518.608 865.997 515.808 864.863 512.778C863.729 509.749 863.219 506.553 863.332 503.191C863.445 499.829 864.269 496.549 865.804 493.352C867.339 490.154 869.383 487.46 871.936 485.269C874.509 483.036 877.332 481.415 880.405 480.406C883.52 479.417 886.812 479.03 890.28 479.245C893.748 479.461 897.144 480.367 900.468 481.962C902.277 482.831 903.985 483.91 905.592 485.199C907.199 486.488 908.641 487.905 909.918 489.45C911.215 490.953 912.296 492.585 913.159 494.345C914.042 496.063 914.675 497.817 915.059 499.606L904.285 503.285C903.658 500.603 902.609 498.313 901.138 496.416C899.73 494.498 897.911 493.003 895.681 491.933C893.914 491.085 892.091 490.623 890.211 490.549C888.393 490.453 886.644 490.7 884.963 491.291C883.324 491.902 881.784 492.845 880.343 494.12C878.965 495.374 877.841 496.905 876.973 498.714C876.105 500.523 875.612 502.357 875.496 504.217C875.442 506.054 875.71 507.814 876.301 509.495C876.933 511.197 877.866 512.757 879.1 514.178C880.395 515.576 881.969 516.72 883.82 517.609ZM902.147 529.669L911.992 524.689C913.612 528.107 915.347 530.855 917.196 532.934C919.045 535.012 921.232 536.657 923.756 537.869C926.238 539.061 928.355 539.611 930.107 539.521C931.901 539.45 933.121 538.742 933.768 537.395C934.353 536.175 934.324 534.997 933.679 533.859C933.077 532.741 931.773 531.468 929.767 530.039L920.867 523.67C917.594 521.322 915.495 518.632 914.57 515.599C913.644 512.567 913.959 509.431 915.515 506.192C917.554 501.942 920.759 499.365 925.128 498.46C929.559 497.534 934.593 498.423 940.23 501.13C943.511 502.705 946.541 504.859 949.319 507.59C952.14 510.342 954.284 513.261 955.753 516.347L946.163 521.605C944.718 518.685 943.082 516.269 941.256 514.357C939.473 512.465 937.424 510.964 935.11 509.853C932.922 508.803 931.005 508.322 929.357 508.411C927.772 508.479 926.697 509.101 926.131 510.279C925.606 511.373 925.592 512.427 926.088 513.442C926.647 514.435 927.781 515.523 929.491 516.706L937.914 522.614C941.839 525.327 944.381 528.281 945.539 531.477C946.738 534.693 946.52 538.005 944.884 541.412C942.743 545.872 939.301 548.567 934.557 549.499C929.855 550.451 924.517 549.493 918.543 546.625C915.009 544.929 911.788 542.58 908.881 539.579C906.015 536.599 903.77 533.295 902.147 529.669Z" fill="#F8F8F8"/>
</svg>
