<svg width="7059" height="4890" viewBox="0 0 7059 4890" fill="none" xmlns="http://www.w3.org/2000/svg">
<g clip-path="url(#clip0)">
<path d="M7 2433.26C7 2433.26 844.324 2101.75 1405.5 1981.26C2312.78 1786.46 2870.75 1678.03 3779 1868.26C4528.67 2025.27 4816.63 2542.26 5573.5 2659.76C6346.98 2779.84 7565 2433.26 7565 2433.26V3323.26C7565 3323.26 6329.92 3448.7 5488.5 3323.26C4788.23 3218.86 4478.72 2767.75 3779 2659.76C3019.23 2542.5 2474.13 2532.32 1716 2659.76C1030.03 2775.06 7 3323.26 7 3323.26V2433.26Z" fill="#FF7F50" fill-opacity="0.11"/>
<path d="M7292 2741.67C7292 2741.67 6454.67 3073.19 5893.5 3193.67C4986.21 3388.47 4386.25 3112.22 3478 2921.99C2728.33 2764.98 2398.37 3180.99 1641.5 3063.49C868.018 2943.41 -266.004 3642.49 -266.004 3642.49V2625.49C-266.004 2625.49 687.074 2288.05 1528.5 2413.49C2228.77 2517.89 2933.77 2164 3633.5 2271.99C4393.27 2389.25 4824.86 2642.61 5583 2515.17C6268.97 2399.87 7292 1851.67 7292 1851.67V2741.67Z" fill="#FF7F50" fill-opacity="0.11"/>
<path d="M7135.1 2591.6C7135.1 2591.6 6335.97 2176.37 5790.02 1999.25C4907.35 1712.89 4282.33 1926.48 3359.41 2023.04C2597.63 2102.73 2311.84 1655.22 1546.93 1694.88C765.24 1735.4 -162.768 2212.25 -162.768 2212.25L-162.768 3229.25C-162.768 3229.25 518.366 2368.88 1368.2 2329.95C2075.46 2297.56 2740.68 2721.54 3447.77 2685.51C4215.54 2646.39 4670.73 2438.4 5411.91 2642.53C6082.54 2827.23 7044.28 3476.95 7044.28 3476.95L7135.1 2591.6Z" fill="#FF7F50" fill-opacity="0.11"/>
<path d="M-333.863 2721.67C-333.863 2721.67 852.908 3113.6 1386.02 2900.93C2247.93 2557.09 2885.65 2729.08 3812.93 2764.69C4578.3 2794.07 4834.01 2328.72 5599.87 2317.95C6382.54 2306.94 7339.92 2721.67 7339.92 2721.67L7406.86 3736.47C7406.86 3736.47 6670.57 2922.79 5820.02 2939.88C5112.16 2954.11 4476.29 3420.95 3768.36 3431.54C2999.68 3443.04 2531.78 3265.45 1805.65 3517.92C1148.63 3746.36 -333.863 3625.89 -333.863 3625.89L-333.863 2721.67Z" fill="#FF7F50" fill-opacity="0.11"/>
</g>
<defs>
<clipPath id="clip0">
<rect width="7059" height="4890" fill="white"/>
</clipPath>
</defs>
</svg>
